<svg width="58" height="72" viewBox="0 0 58 72" fill="none" xmlns="http://www.w3.org/2000/svg">
<g filter="url(#filter0_d_45_217)">
<ellipse cx="28" cy="26.7447" rx="24" ry="23.7447" fill="#23574C"/>
<path d="M27.3327 65L14.0536 37.2979H40.6117L27.3327 65Z" fill="#23574C"/>
<ellipse cx="27.9993" cy="26.7446" rx="17.3333" ry="17.1489" fill="white"/>
</g>
<path d="M36 37H22.5C20.567 37 19 35.433 19 33.5V20C19 18.3432 20.3432 17 22 17H36C36.5523 17 37 17.4477 37 18V36C37 36.5523 36.5523 37 36 37ZM35 35V32H22.5C21.6716 32 21 32.6716 21 33.5C21 34.3284 21.6716 35 22.5 35H35ZM26 19V27L29.5 25L33 27V19H26Z" fill="#23574C"/>
<defs>
<filter id="filter0_d_45_217" x="0" y="0" width="58" height="72" filterUnits="userSpaceOnUse" color-interpolation-filters="sRGB">
<feFlood flood-opacity="0" result="BackgroundImageFix"/>
<feColorMatrix in="SourceAlpha" type="matrix" values="0 0 0 0 0 0 0 0 0 0 0 0 0 0 0 0 0 0 127 0" result="hardAlpha"/>
<feOffset dx="1" dy="2"/>
<feGaussianBlur stdDeviation="2.5"/>
<feComposite in2="hardAlpha" operator="out"/>
<feColorMatrix type="matrix" values="0 0 0 0 0 0 0 0 0 0 0 0 0 0 0 0 0 0 0.25 0"/>
<feBlend mode="normal" in2="BackgroundImageFix" result="effect1_dropShadow_45_217"/>
<feBlend mode="normal" in="SourceGraphic" in2="effect1_dropShadow_45_217" result="shape"/>
</filter>
</defs>
</svg>
