<svg width="58" height="72" viewBox="0 0 58 72" fill="none" xmlns="http://www.w3.org/2000/svg">
<g filter="url(#filter0_d_45_119)">
<ellipse cx="28" cy="26.7447" rx="24" ry="23.7447" fill="#23574C"/>
<path d="M27.3327 65L14.0536 37.2979H40.6117L27.3327 65Z" fill="#23574C"/>
<ellipse cx="27.9993" cy="26.7446" rx="17.3333" ry="17.1489" fill="white"/>
</g>
<path d="M32 16C32.5523 16 33 16.4477 33 17V20H37C37.5523 20 38 20.4477 38 21V35C38 35.5523 37.5523 36 37 36H19C18.4477 36 18 35.5523 18 35V21C18 20.4477 18.4477 20 19 20H23V17C23 16.4477 23.4477 16 24 16H32ZM29 24H27V27H24V29H26.999L27 32H29L28.999 29H32V27H29V24ZM31 18H25V20H31V18Z" fill="#23574C"/>
<defs>
<filter id="filter0_d_45_119" x="0" y="0" width="58" height="72" filterUnits="userSpaceOnUse" color-interpolation-filters="sRGB">
<feFlood flood-opacity="0" result="BackgroundImageFix"/>
<feColorMatrix in="SourceAlpha" type="matrix" values="0 0 0 0 0 0 0 0 0 0 0 0 0 0 0 0 0 0 127 0" result="hardAlpha"/>
<feOffset dx="1" dy="2"/>
<feGaussianBlur stdDeviation="2.5"/>
<feComposite in2="hardAlpha" operator="out"/>
<feColorMatrix type="matrix" values="0 0 0 0 0 0 0 0 0 0 0 0 0 0 0 0 0 0 0.25 0"/>
<feBlend mode="normal" in2="BackgroundImageFix" result="effect1_dropShadow_45_119"/>
<feBlend mode="normal" in="SourceGraphic" in2="effect1_dropShadow_45_119" result="shape"/>
</filter>
</defs>
</svg>
