<svg width="58" height="72" viewBox="0 0 58 72" fill="none" xmlns="http://www.w3.org/2000/svg">
<g filter="url(#filter0_d_45_118)">
<ellipse cx="28" cy="26.7447" rx="24" ry="23.7447" fill="#23574C"/>
<path d="M27.3327 65L14.0536 37.2979H40.6117L27.3327 65Z" fill="#23574C"/>
<ellipse cx="27.9993" cy="26.7446" rx="17.3333" ry="17.1489" fill="white"/>
</g>
<path d="M22.9332 17.8333H19.3333V16H24.4001L26.5668 20.5833H37.75V22.4167H35.4559L34.56 35.3038C34.5263 35.7884 34.0522 36.1667 33.4785 36.1667H22.5215C21.9479 36.1667 21.4737 35.7884 21.44 35.3038L20.5441 22.4167H18.25V20.5833H24.2332L22.9332 17.8333ZM22.7145 22.4167L22.9073 25.1898C25.8015 25.2908 27.2069 25.7443 28.39 26.1448C29.5289 26.5302 30.47 26.8654 32.9689 26.9703L33.2855 22.4167H22.7145Z" fill="#23574C"/>
<defs>
<filter id="filter0_d_45_118" x="0" y="0" width="58" height="72" filterUnits="userSpaceOnUse" color-interpolation-filters="sRGB">
<feFlood flood-opacity="0" result="BackgroundImageFix"/>
<feColorMatrix in="SourceAlpha" type="matrix" values="0 0 0 0 0 0 0 0 0 0 0 0 0 0 0 0 0 0 127 0" result="hardAlpha"/>
<feOffset dx="1" dy="2"/>
<feGaussianBlur stdDeviation="2.5"/>
<feComposite in2="hardAlpha" operator="out"/>
<feColorMatrix type="matrix" values="0 0 0 0 0 0 0 0 0 0 0 0 0 0 0 0 0 0 0.25 0"/>
<feBlend mode="normal" in2="BackgroundImageFix" result="effect1_dropShadow_45_118"/>
<feBlend mode="normal" in="SourceGraphic" in2="effect1_dropShadow_45_118" result="shape"/>
</filter>
</defs>
</svg>
