<svg width="232" height="90" viewBox="0 0 232 90" fill="none" xmlns="http://www.w3.org/2000/svg">
<path d="M82.4925 26.25V35.625C82.4925 49.0871 71.5796 60 58.1175 60H48.7425V78.75H41.2425V52.5L41.3134 48.7526C42.2696 36.1655 52.7858 26.25 65.6175 26.25H82.4925ZM22.4927 11.25C34.089 11.25 43.929 18.7695 47.403 29.1985C41.7814 33.9795 38.0685 40.9286 37.554 48.7515L33.7427 48.75C19.2452 48.75 7.49269 36.9975 7.49269 22.5V11.25H22.4927Z" fill="#23574C"/>
<path d="M110.95 44.95V48.2H129.75V54.05H84.2V48.2H103V44.95H98.05C96.5833 44.95 95.1667 44.85 93.8 44.65C92.4333 44.45 91.2167 44.05 90.15 43.45C89.1167 42.8167 88.2833 41.9167 87.65 40.75C87.0167 39.55 86.7 37.9667 86.7 36C86.7 34.1 87.0167 32.55 87.65 31.35C88.2833 30.1167 89.1167 29.1667 90.15 28.5C91.2167 27.8333 92.4333 27.3833 93.8 27.15C95.1667 26.8833 96.5833 26.75 98.05 26.75H115.9C117.367 26.75 118.783 26.8833 120.15 27.15C121.517 27.3833 122.717 27.8333 123.75 28.5C124.817 29.1667 125.667 30.1167 126.3 31.35C126.933 32.55 127.25 34.1 127.25 36C127.25 37.9667 126.933 39.55 126.3 40.75C125.667 41.9167 124.817 42.8167 123.75 43.45C122.717 44.05 121.517 44.45 120.15 44.65C118.783 44.85 117.367 44.95 115.9 44.95H110.95ZM126.95 69.55H94.5C93.4 69.55 92.3833 69.45 91.45 69.25C90.55 69.0833 89.7667 68.75 89.1 68.25C88.4333 67.7833 87.9167 67.1167 87.55 66.25C87.1833 65.4167 87 64.35 87 63.05V56.85H95V60.55C95 61.1833 95.0333 61.7 95.1 62.1C95.2 62.5 95.3667 62.8167 95.6 63.05C95.8667 63.2833 96.2167 63.45 96.65 63.55C97.0833 63.65 97.65 63.7 98.35 63.7H126.95V69.55ZM115.9 39.1C116.867 39.1 117.667 38.8333 118.3 38.3C118.933 37.7333 119.25 36.95 119.25 35.95C119.25 33.7167 118.133 32.6 115.9 32.6H98.05C95.8167 32.6 94.7 33.7167 94.7 35.95C94.7 36.95 95.0167 37.7333 95.65 38.3C96.2833 38.8333 97.0833 39.1 98.05 39.1H115.9ZM148 68C145.067 68 142.7 67.65 140.9 66.95C139.133 66.2833 137.767 65.4667 136.8 64.5C135.833 63.5667 135.183 62.5833 134.85 61.55C134.55 60.4833 134.4 59.5833 134.4 58.85V47.95C134.4 47.2167 134.55 46.3333 134.85 45.3C135.183 44.2333 135.833 43.2333 136.8 42.3C137.767 41.3333 139.133 40.5167 140.9 39.85C142.7 39.1833 145.067 38.85 148 38.85C150.933 38.85 153.283 39.1833 155.05 39.85C156.85 40.5167 158.233 41.3333 159.2 42.3C160.167 43.2333 160.8 44.2333 161.1 45.3C161.433 46.3333 161.6 47.2167 161.6 47.95V58.85C161.6 59.5833 161.433 60.4833 161.1 61.55C160.8 62.5833 160.167 63.5667 159.2 64.5C158.233 65.4667 156.85 66.2833 155.05 66.95C153.283 67.65 150.933 68 148 68ZM166.5 27.25H174.5V42.25H180.85V48.1H174.5V67.75H166.5V27.25ZM133.15 30.4H143.95V24.95H151.95V30.4H162.8V36.25H133.15V30.4ZM148 44.45C147.367 44.45 146.717 44.5 146.05 44.6C145.383 44.7 144.783 44.9167 144.25 45.25C143.717 45.55 143.267 46 142.9 46.6C142.567 47.2 142.4 48 142.4 49V57.8C142.4 58.8 142.567 59.6 142.9 60.2C143.267 60.8 143.717 61.2667 144.25 61.6C144.783 61.9 145.383 62.1 146.05 62.2C146.717 62.3 147.367 62.35 148 62.35C148.633 62.35 149.283 62.3 149.95 62.2C150.617 62.1 151.217 61.9 151.75 61.6C152.283 61.2667 152.717 60.8 153.05 60.2C153.417 59.6 153.6 58.8 153.6 57.8V49C153.6 48 153.417 47.2 153.05 46.6C152.717 46 152.283 45.55 151.75 45.25C151.217 44.9167 150.617 44.7 149.95 44.6C149.283 44.5 148.633 44.45 148 44.45ZM226.95 51.95H194.55C193.45 51.95 192.433 51.8667 191.5 51.7C190.6 51.5 189.817 51.1667 189.15 50.7C188.483 50.2 187.967 49.5333 187.6 48.7C187.233 47.8333 187.05 46.75 187.05 45.45V36.6H218.95V33.1H187.05V27.25H226.95V42.55H195.05V43.95C195.05 44.6167 195.133 45.15 195.3 45.55C195.467 45.9167 196.017 46.1 196.95 46.1H226.95V51.95ZM184.2 55.2H229.75V61.05H210.95V69.65H203V61.05H184.2V55.2Z" fill="#23574C"/>
</svg>
