<svg width="534" height="100" viewBox="0 0 534 100" fill="none" xmlns="http://www.w3.org/2000/svg">
<g filter="url(#filter0_d_19_11)">
<path d="M6 37.4058V30.3078L21.036 29.4258V25.2258C19.188 25.1138 17.494 24.7778 15.954 24.2178C14.414 23.6578 13.07 22.8878 11.922 21.9078C10.802 20.8998 9.92 19.7098 9.276 18.3378C8.66 16.9378 8.352 15.3698 8.352 13.6338C8.352 11.7858 8.702 10.1478 9.402 8.71982C10.102 7.26382 11.068 6.04582 12.3 5.06582C13.56 4.05782 15.044 3.30182 16.752 2.79782C18.46 2.26582 20.308 1.99982 22.296 1.99982H28.722C30.71 1.99982 32.558 2.26582 34.266 2.79782C35.974 3.30182 37.444 4.05782 38.676 5.06582C39.936 6.04582 40.916 7.26382 41.616 8.71982C42.316 10.1478 42.666 11.7858 42.666 13.6338C42.666 15.3698 42.344 16.9378 41.7 18.3378C41.084 19.7098 40.202 20.8998 39.054 21.9078C37.934 22.8878 36.59 23.6578 35.022 24.2178C33.482 24.7778 31.788 25.1138 29.94 25.2258V28.9218L44.976 27.9978V37.4058H6ZM28.05 17.7498C28.89 17.7498 29.66 17.6658 30.36 17.4978C31.088 17.3298 31.718 17.0778 32.25 16.7418C32.81 16.4058 33.244 15.9858 33.552 15.4818C33.86 14.9498 34.014 14.3338 34.014 13.6338C34.014 12.9338 33.86 12.3318 33.552 11.8278C33.244 11.2958 32.81 10.8618 32.25 10.5258C31.718 10.1898 31.088 9.93782 30.36 9.76982C29.66 9.60182 28.89 9.51782 28.05 9.51782H22.968C22.128 9.51782 21.344 9.60182 20.616 9.76982C19.916 9.93782 19.286 10.1898 18.726 10.5258C18.194 10.8618 17.774 11.2958 17.466 11.8278C17.158 12.3318 17.004 12.9338 17.004 13.6338C17.004 14.3338 17.158 14.9498 17.466 15.4818C17.774 15.9858 18.194 16.4058 18.726 16.7418C19.286 17.0778 19.916 17.3298 20.616 17.4978C21.344 17.6658 22.128 17.7498 22.968 17.7498H28.05ZM50.0357 38.8338V28.9218L74.5637 27.4518V26.5278L50.0357 27.9978V23.1678L83.2157 20.9838V30.4758L58.6877 32.1978V33.1638L84.0137 31.6518V38.8338H50.0357ZM47.1797 22.1598V16.4058L86.1557 13.8858V19.6398L47.1797 22.1598ZM50.3297 15.0618V2.33582H58.9817V8.67782L83.0057 7.16582V12.8358L50.3297 15.0618ZM122.141 28.1238C122.141 31.3158 121.161 33.7798 119.201 35.5158C117.269 37.2518 114.595 38.1198 111.179 38.1198C107.763 38.1198 105.075 37.2518 103.115 35.5158C101.155 33.7798 100.175 31.3158 100.175 28.1238V22.9998C100.175 21.0958 100.693 19.6538 101.729 18.6738H98.5372V11.3238H123.737V18.6738H120.587C121.623 19.6538 122.141 21.0958 122.141 22.9998V28.1238ZM125.039 39.2118V2.50382H133.691V15.0618L138.143 14.5578V23.1258L133.691 23.6298V37.5318L125.039 39.2118ZM103.157 10.1478V2.67182H119.327V10.1478H103.157ZM113.531 22.5798C113.531 21.7678 113.335 21.0538 112.943 20.4378C112.579 19.8218 111.977 19.5138 111.137 19.5138C110.325 19.5138 109.723 19.8218 109.331 20.4378C108.967 21.0538 108.785 21.7678 108.785 22.5798V27.4938C108.785 28.3058 108.967 29.0198 109.331 29.6358C109.723 30.2518 110.339 30.5598 111.179 30.5598C111.991 30.5598 112.579 30.2518 112.943 29.6358C113.335 29.0198 113.531 28.3058 113.531 27.4938V22.5798ZM142.615 24.7638V11.5338L166.639 10.2318V8.97182H142.615V2.71382H175.291V15.0198L151.267 16.3218V17.5818L175.291 16.2798V22.7058L142.615 24.7638ZM163.321 31.5258V38.3718L154.585 39.2118V32.0718L139.465 33.0378V26.3598L178.441 23.8818V30.5598L163.321 31.5258ZM183.501 38.8338V30.2658L208.029 28.8378V28.0398L183.501 29.4678V25.0578L216.681 22.9578V31.7358L192.153 33.2058V34.0458L217.479 32.5758V38.8338H183.501ZM180.645 24.3438V19.4298L219.621 16.9938V21.9078L180.645 24.3438ZM183.795 18.2958V8.71982L207.819 7.54382V6.91382H183.795V2.50382H216.471V10.8198L192.447 12.2898V13.1298L216.471 11.6598V16.2798L183.795 18.2958ZM231.75 27.8718V21.3198L246.786 20.3958V18.5478H244.854C243.174 18.5478 241.648 18.3518 240.276 17.9598C238.932 17.5678 237.784 17.0078 236.832 16.2798C235.88 15.5518 235.138 14.6838 234.606 13.6758C234.102 12.6678 233.85 11.5338 233.85 10.2738C233.85 9.01382 234.102 7.87982 234.606 6.87182C235.138 5.83582 235.88 4.96782 236.832 4.26782C237.784 3.53982 238.932 2.97982 240.276 2.58782C241.648 2.19582 243.174 1.99982 244.854 1.99982H257.58C259.26 1.99982 260.772 2.19582 262.116 2.58782C263.488 2.97982 264.65 3.53982 265.602 4.26782C266.554 4.99582 267.282 5.87782 267.786 6.91382C268.318 7.92182 268.584 9.05582 268.584 10.3158C268.584 11.5758 268.318 12.7098 267.786 13.7178C267.282 14.7258 266.554 15.5938 265.602 16.3218C264.65 17.0218 263.488 17.5678 262.116 17.9598C260.772 18.3518 259.26 18.5478 257.58 18.5478H255.69V19.8498L270.726 18.8838V25.4358L231.75 27.8718ZM234.984 38.2878V28.5438L243.636 28.0398V31.7358L268.5 30.0558V38.2878H234.984ZM245.232 8.55182C244.504 8.55182 243.86 8.67782 243.3 8.92982C242.768 9.18182 242.502 9.62982 242.502 10.2738C242.502 10.9178 242.768 11.3658 243.3 11.6178C243.86 11.8698 244.504 11.9958 245.232 11.9958H257.202C257.93 11.9958 258.56 11.8838 259.092 11.6598C259.652 11.4078 259.932 10.9598 259.932 10.3158C259.932 9.67182 259.652 9.22382 259.092 8.97182C258.56 8.69182 257.93 8.55182 257.202 8.55182H245.232ZM301.364 27.0738V14.7258L296.702 15.1038V9.76982H291.368V12.2478L300.776 18.0858L295.904 24.5118L287.084 18.7578L276.584 26.1498L271.712 20.1018L282.506 12.4578V9.76982H274.526V2.67182H298.928V7.16582L301.364 6.95582V2.50382H310.016V26.1918L301.364 27.0738ZM278.18 38.2878V26.3178L286.832 25.5198V31.0638L310.394 28.9638V38.2878H278.18ZM338.805 28.1238C338.805 29.7198 338.539 31.1338 338.007 32.3658C337.475 33.5978 336.719 34.6338 335.739 35.4738C334.787 36.3418 333.625 36.9998 332.253 37.4478C330.881 37.8958 329.341 38.1198 327.633 38.1198C325.925 38.1198 324.385 37.8958 323.013 37.4478C321.641 36.9998 320.465 36.3418 319.485 35.4738C318.505 34.6338 317.749 33.5978 317.217 32.3658C316.685 31.1338 316.419 29.7198 316.419 28.1238V22.9998C316.419 21.0958 316.951 19.6538 318.015 18.6738H314.781V11.3238H340.401V18.6738H337.167C337.699 19.1498 338.105 19.7518 338.385 20.4798C338.665 21.1798 338.805 22.0198 338.805 22.9998V28.1238ZM342.123 39.2118V2.50382H350.775V37.5318L342.123 39.2118ZM319.401 10.1478V2.67182H335.991V10.1478H319.401ZM330.195 22.5798C330.195 21.7678 329.971 21.0538 329.523 20.4378C329.075 19.8218 328.431 19.5138 327.591 19.5138C326.779 19.5138 326.149 19.8218 325.701 20.4378C325.253 21.0538 325.029 21.7678 325.029 22.5798V27.4938C325.029 28.3058 325.253 29.0198 325.701 29.6358C326.149 30.2518 326.793 30.5598 327.633 30.5598C328.445 30.5598 329.075 30.2518 329.523 29.6358C329.971 29.0198 330.195 28.3058 330.195 27.4938V22.5798ZM386.299 37.1538L378.907 26.3598L371.179 37.5738L364.123 32.7858L374.539 16.9518V10.9878H366.643V3.04982H391.675V10.9878H383.401V17.0358L393.355 32.3658L386.299 37.1538ZM393.649 39.2118V2.50382H402.301V37.5318L393.649 39.2118ZM434.829 39.2118V30.7698L429.705 31.3158V26.0238L410.595 37.5738L405.597 31.1478L421.515 22.0338V21.5298L408.495 22.9578V15.6498L421.515 14.4318V10.5678H408.495V3.04982H430.377V9.22382L434.829 8.76182V2.50382H443.481V37.5318L434.829 39.2118ZM434.829 17.3298L430.377 17.7918V22.6638L434.829 22.2018V17.3298ZM467.062 17.2458L451.816 23.4618L447.532 17.1618L462.652 10.6098V9.81182H450.514V2.71382H483.61V9.81182H471.472V10.3998L486.592 15.0618L482.308 21.7818L467.062 17.2458ZM471.43 30.5598V38.3718L462.694 39.2118V31.1058L447.574 32.0718V24.7218L486.55 22.0758V29.5938L471.43 30.5598ZM491.988 38.2878V27.5358L500.64 26.9898V31.4418L525.504 29.7198V38.2878H491.988ZM488.754 26.5698V19.7658L527.73 17.2458V24.0498L488.754 26.5698ZM491.904 17.9598V2.33582H500.556V10.3158L524.58 8.76182V15.8178L491.904 17.9598ZM98.2852 75.3098V69.1358L113.321 68.2118V66.9098L101.435 67.6658V52.5458H134.111V58.4678H110.087V61.1138L134.111 59.8538V65.5238L122.225 66.3218V67.6658L137.261 66.6998V72.8738L98.2852 75.3098ZM109.373 89.2538C106.601 89.2538 104.403 88.6658 102.779 87.4898C101.183 86.3418 100.385 84.5918 100.385 82.2398C100.385 81.0638 100.595 80.0698 101.015 79.2578C101.435 78.4178 102.037 77.7178 102.821 77.1578C103.605 76.5978 104.543 76.1778 105.635 75.8978C106.755 75.5898 108.001 75.3938 109.373 75.3098L126.551 74.2598C127.923 74.1758 129.141 74.3018 130.205 74.6378C131.269 74.9738 132.165 75.4778 132.893 76.1498C133.621 76.7938 134.167 77.5918 134.531 78.5438C134.923 79.4958 135.119 80.5458 135.119 81.6938C135.119 84.0458 134.377 85.8938 132.893 87.2378C131.437 88.5818 129.323 89.2538 126.551 89.2538H109.373ZM110.759 81.3998C110.339 81.4278 109.919 81.4838 109.499 81.5678C109.079 81.6238 108.869 81.8338 108.869 82.1978C108.869 82.5618 109.079 82.7718 109.499 82.8278C109.919 82.8838 110.339 82.8978 110.759 82.8698L124.913 82.1978C125.333 82.1698 125.725 82.0998 126.089 81.9878C126.453 81.8758 126.635 81.6378 126.635 81.2738C126.635 80.9098 126.481 80.6858 126.173 80.6018C125.865 80.4898 125.501 80.4478 125.081 80.4758L110.759 81.3998ZM140.389 87.2378V52.6298H148.243V77.8298L158.533 76.4438V85.0118L140.389 87.2378ZM160.003 88.6238V69.8918L152.779 70.8158V62.2478L160.003 61.3238V52.5038H167.521V87.1118L160.003 88.6238ZM169.369 89.2118V52.5038H176.971V87.7418L169.369 89.2118ZM209.079 89.2118V84.8018L181.527 87.5738V79.7198L209.079 76.9478V52.5038H217.731V87.5318L209.079 89.2118ZM207.147 64.6838C207.147 66.2238 206.909 67.6798 206.433 69.0518C205.985 70.4238 205.257 71.6278 204.249 72.6638C203.269 73.6998 202.009 74.5258 200.469 75.1418C198.929 75.7298 197.095 76.0238 194.967 76.0238C192.839 76.0238 191.005 75.7158 189.465 75.0998C187.925 74.4558 186.665 73.6018 185.685 72.5378C184.705 71.4458 183.977 70.1998 183.501 68.7998C183.025 67.3998 182.787 65.9158 182.787 64.3478V63.5498C182.787 62.0098 183.025 60.5398 183.501 59.1398C183.977 57.7118 184.705 56.4658 185.685 55.4018C186.665 54.3378 187.925 53.4978 189.465 52.8818C191.005 52.2378 192.839 51.9158 194.967 51.9158C197.095 51.9158 198.929 52.2238 200.469 52.8398C202.009 53.4278 203.269 54.2398 204.249 55.2758C205.257 56.3118 205.985 57.5158 206.433 58.8878C206.909 60.2598 207.147 61.7158 207.147 63.2558V64.6838ZM198.537 63.5918C198.537 62.4438 198.229 61.4638 197.613 60.6518C196.997 59.8398 196.115 59.4338 194.967 59.4338C193.847 59.4338 192.979 59.8398 192.363 60.6518C191.747 61.4638 191.439 62.4438 191.439 63.5918V64.3478C191.439 65.4678 191.747 66.4478 192.363 67.2878C192.979 68.0998 193.847 68.5058 194.967 68.5058C196.115 68.5058 196.997 68.0998 197.613 67.2878C198.229 66.4478 198.537 65.4678 198.537 64.3478V63.5918ZM258.924 89.2118V84.5498L232.338 87.6998V78.2918L240.486 78.4178V78.8378L245.148 78.3338V53.0498H257.244V60.9878H253.296V77.4098L258.924 76.8218V52.5038H267.156V64.6418L271.608 64.1378V72.7058L267.156 73.2098V87.5318L258.924 89.2118ZM232.338 78.2918V53.0498H243.888V60.9878H240.486V78.4178L232.338 78.2918ZM292.376 85.1798L276.542 89.5058L272.762 83.2058L287.966 79.1318V77.5358L296.786 76.9478V78.7118L312.032 82.7858L308.21 89.5058L292.376 85.1798ZM272.93 77.4518V70.8998L311.906 68.4638V75.0158L272.93 77.4518ZM275.45 69.3458V52.5458H291.326V58.8458L284.102 58.8878V62.2058L292.46 61.7438V52.5458H309.386V58.8458H301.112V61.3238L309.386 60.8618V67.2878L275.45 69.3458ZM337.083 65.3138C337.643 66.1818 337.923 67.1478 337.923 68.2118C337.923 69.4718 337.643 70.5918 337.083 71.5718C336.551 72.5238 335.809 73.3358 334.857 74.0078C333.933 74.6518 332.855 75.1418 331.623 75.4778C330.391 75.8138 329.103 75.9818 327.759 75.9818H325.911C324.567 75.9818 323.279 75.8138 322.047 75.4778C320.815 75.1418 319.723 74.6518 318.771 74.0078C317.847 73.3638 317.105 72.5518 316.545 71.5718C316.013 70.5918 315.747 69.4718 315.747 68.2118C315.747 67.0918 316.013 66.1258 316.545 65.3138H314.235V59.0558H339.477V65.3138H337.083ZM317.679 88.2878V77.7878L326.331 76.9898V81.6938L349.893 79.5938V88.2878H317.679ZM340.863 77.7038V52.5038H349.515V63.3818L353.967 62.8778V71.4458L349.515 71.9498V76.8218L340.863 77.7038ZM319.275 58.1318V51.7478H334.647V58.1318H319.275ZM327.423 69.4718C328.207 69.4718 328.837 69.3038 329.313 68.9678C329.789 68.6038 330.027 68.0998 330.027 67.4558C330.027 66.8118 329.789 66.3078 329.313 65.9438C328.837 65.5798 328.207 65.3978 327.423 65.3978H326.247C325.463 65.3978 324.833 65.5798 324.357 65.9438C323.881 66.3078 323.643 66.8118 323.643 67.4558C323.643 68.0998 323.881 68.6038 324.357 68.9678C324.833 69.3038 325.463 69.4718 326.247 69.4718H327.423ZM365.215 87.4058V80.3078L380.251 79.4258V74.6378L368.365 75.3098V52.7138H401.041V60.2318H377.017V66.9518L401.041 65.3558V73.4198L389.155 74.1338V78.9218L404.191 77.9978V87.4058H365.215ZM409.293 88.5398V75.7298L421.431 75.0158V73.7138L406.395 74.6378V68.4638L445.371 66.0278V72.2018L430.335 73.1678V74.5118L442.473 73.7558V88.5398H409.293ZM419.499 66.2378C417.819 66.2378 416.293 66.0698 414.921 65.7338C413.577 65.3978 412.429 64.9218 411.477 64.3058C410.525 63.6618 409.783 62.9058 409.251 62.0378C408.747 61.1698 408.495 60.1898 408.495 59.0978C408.495 58.0058 408.747 57.0258 409.251 56.1578C409.783 55.2898 410.525 54.5478 411.477 53.9318C412.429 53.3158 413.577 52.8398 414.921 52.5038C416.293 52.1678 417.819 51.9998 419.499 51.9998H432.225C433.905 51.9998 435.417 52.1678 436.761 52.5038C438.133 52.8398 439.295 53.3298 440.247 53.9738C441.199 54.5898 441.927 55.3318 442.431 56.1998C442.963 57.0678 443.229 58.0478 443.229 59.1398C443.229 60.2318 442.963 61.2118 442.431 62.0798C441.927 62.9478 441.199 63.6898 440.247 64.3058C439.295 64.9218 438.133 65.3978 436.761 65.7338C435.417 66.0698 433.905 66.2378 432.225 66.2378H419.499ZM419.583 57.9218C418.855 57.9218 418.267 58.0338 417.819 58.2578C417.371 58.4818 417.147 58.7618 417.147 59.0978C417.147 59.4618 417.371 59.7558 417.819 59.9798C418.267 60.2038 418.855 60.3158 419.583 60.3158H432.141C432.869 60.3158 433.457 60.2038 433.905 59.9798C434.353 59.7558 434.577 59.4758 434.577 59.1398C434.577 58.7758 434.353 58.4818 433.905 58.2578C433.457 58.0338 432.869 57.9218 432.141 57.9218H419.583ZM433.821 80.3498L417.945 81.3998V82.5758L433.821 81.5258V80.3498Z" fill="#4F9A89"/>
</g>
<defs>
<filter id="filter0_d_19_11" x="0" y="0" width="533.73" height="99.5059" filterUnits="userSpaceOnUse" color-interpolation-filters="sRGB">
<feFlood flood-opacity="0" result="BackgroundImageFix"/>
<feColorMatrix in="SourceAlpha" type="matrix" values="0 0 0 0 0 0 0 0 0 0 0 0 0 0 0 0 0 0 127 0" result="hardAlpha"/>
<feOffset dy="4"/>
<feGaussianBlur stdDeviation="3"/>
<feComposite in2="hardAlpha" operator="out"/>
<feColorMatrix type="matrix" values="0 0 0 0 0 0 0 0 0 0 0 0 0 0 0 0 0 0 0.1 0"/>
<feBlend mode="normal" in2="BackgroundImageFix" result="effect1_dropShadow_19_11"/>
<feBlend mode="normal" in="SourceGraphic" in2="effect1_dropShadow_19_11" result="shape"/>
</filter>
</defs>
</svg>
