<svg width="959" height="163" viewBox="0 0 959 163" fill="none" xmlns="http://www.w3.org/2000/svg">
<g filter="url(#filter0_d_19_13)">
<path d="M34.2928 36.6122V27.6362L58.6368 26.1402V24.1002L39.3928 25.3242V3.22417H92.2968V11.8602H53.4008V15.7362L92.2968 13.6962V21.8562L73.0528 23.1482V25.2562L97.3968 23.6922V32.6682L34.2928 36.6122ZM38.9168 62.0442V46.9482L78.6288 44.6362V43.2082L38.9168 45.5202V37.9722L92.6368 34.5722V49.3282L52.9248 51.7082V53.2042L93.9288 50.8242V62.0442H38.9168ZM103.005 41.0322V31.3082L127.349 29.7442V27.4322L108.105 28.5882V3.22417H122.113V7.64417L147.001 6.21617V3.22417H161.009V25.3242L141.765 26.5482V28.7922L166.109 27.2282V36.9522L103.005 41.0322ZM107.697 61.5682V42.5962L161.417 39.2642V61.5682H107.697ZM147.001 14.6482L122.113 16.2122V18.3202L147.001 16.7562V14.6482ZM147.409 48.9882L121.705 50.6202V52.3882L147.409 50.8922V48.9882ZM212.857 42.2562C212.857 44.8855 212.403 47.3108 211.497 49.5322C210.635 51.7535 209.366 53.6802 207.689 55.3122C206.011 56.9442 203.949 58.2135 201.501 59.1202C199.098 60.0268 196.333 60.4802 193.205 60.4802C190.077 60.4802 187.289 60.0268 184.841 59.1202C182.438 58.2135 180.398 56.9442 178.721 55.3122C177.043 53.6802 175.751 51.7535 174.845 49.5322C173.983 47.3108 173.553 44.8855 173.553 42.2562V21.4482C173.553 18.8188 173.983 16.3935 174.845 14.1722C175.751 11.9508 177.043 10.0242 178.721 8.39216C180.398 6.76017 182.438 5.49083 184.841 4.58416C187.289 3.63217 190.077 3.15617 193.205 3.15617C196.333 3.15617 199.098 3.63217 201.501 4.58416C203.949 5.49083 206.011 6.76017 207.689 8.39216C209.366 10.0242 210.635 11.9508 211.497 14.1722C212.403 16.3935 212.857 18.8188 212.857 21.4482V42.2562ZM198.917 21.9922C198.917 20.0428 198.35 18.5015 197.217 17.3682C196.129 16.2348 194.791 15.6682 193.205 15.6682C191.618 15.6682 190.258 16.2348 189.125 17.3682C188.037 18.5015 187.493 20.0428 187.493 21.9922V41.7122C187.493 43.6615 188.037 45.2028 189.125 46.3362C190.258 47.4242 191.618 47.9682 193.205 47.9682C194.791 47.9682 196.129 47.4242 197.217 46.3362C198.35 45.2028 198.917 43.6615 198.917 41.7122V21.9922ZM217.753 62.6562V3.22417H231.761V59.9362L217.753 62.6562ZM304.575 30.2882V29.7442L259.763 34.3002V23.9642L265.271 23.4882V13.4242H260.783V3.22417H301.039V13.4242H295.871V20.5642L304.575 19.7482V3.22417H318.583V28.8602L304.575 30.2882ZM266.699 62.0442V45.6562L304.575 42.2562V40.7602L266.699 44.1602V35.5922L318.583 30.5602V47.5602L280.707 50.9602V52.5242L319.875 49.1242V62.0442H266.699ZM282.611 13.4242H278.531V22.1962L282.611 21.8562V13.4242ZM327.251 59.7322V48.2402L338.743 47.5602V36.0682C336.295 34.4362 334.391 32.3962 333.031 29.9482C331.716 27.4548 331.059 24.5535 331.059 21.2442C331.059 18.2522 331.625 15.6002 332.759 13.2882C333.892 10.9308 335.456 8.95883 337.451 7.37216C339.491 5.74016 341.893 4.51617 344.659 3.70017C347.424 2.83883 350.416 2.40816 353.635 2.40816H364.039C367.257 2.40816 370.249 2.83883 373.015 3.70017C375.78 4.51617 378.16 5.74016 380.155 7.37216C382.195 8.95883 383.781 10.9308 384.915 13.2882C386.048 15.6002 386.615 18.2522 386.615 21.2442C386.615 24.5535 385.935 27.4548 384.575 29.9482C383.215 32.4415 381.311 34.4815 378.863 36.0682V45.1802L390.355 44.5002V59.7322H327.251ZM362.951 27.9082C364.311 27.9082 365.557 27.7722 366.691 27.5002C367.869 27.2282 368.889 26.8202 369.751 26.2762C370.657 25.7322 371.36 25.0522 371.859 24.2362C372.357 23.3748 372.607 22.3775 372.607 21.2442C372.607 20.1108 372.357 19.1362 371.859 18.3202C371.36 17.4588 370.657 16.7562 369.751 16.2122C368.889 15.6682 367.869 15.2602 366.691 14.9882C365.557 14.7162 364.311 14.5802 362.951 14.5802H354.723C353.363 14.5802 352.093 14.7162 350.915 14.9882C349.781 15.2602 348.761 15.6682 347.855 16.2122C346.993 16.7562 346.313 17.4588 345.815 18.3202C345.316 19.1362 345.067 20.1108 345.067 21.2442C345.067 22.3775 345.316 23.3748 345.815 24.2362C346.313 25.0522 346.993 25.7322 347.855 26.2762C348.761 26.8202 349.781 27.2282 350.915 27.5002C352.093 27.7722 353.363 27.9082 354.723 27.9082H362.951ZM364.855 40.0802H364.039H353.635H352.751V46.7442L364.855 46.0642V40.0802ZM433.158 23.9642C434.065 25.3695 434.518 26.9335 434.518 28.6562C434.518 30.6962 434.065 32.5095 433.158 34.0962C432.297 35.6375 431.096 36.9522 429.554 38.0402C428.058 39.0828 426.313 39.8762 424.318 40.4202C422.324 40.9642 420.238 41.2362 418.062 41.2362H415.07C412.894 41.2362 410.809 40.9642 408.814 40.4202C406.82 39.8762 405.052 39.0828 403.51 38.0402C402.014 36.9975 400.813 35.6828 399.906 34.0962C399.045 32.5095 398.614 30.6962 398.614 28.6562C398.614 26.8428 399.045 25.2788 399.906 23.9642H396.166V13.8322H437.034V23.9642H433.158ZM401.742 61.1602V44.1602L415.75 42.8682V50.4842L453.898 47.0842V61.1602H401.742ZM439.278 44.0242V3.22417H453.286V20.8362L460.494 20.0202V33.8922L453.286 34.7082V42.5962L439.278 44.0242ZM404.326 12.3362V2.00016H429.214V12.3362H404.326ZM417.518 30.6962C418.788 30.6962 419.808 30.4242 420.578 29.8802C421.349 29.2908 421.734 28.4748 421.734 27.4322C421.734 26.3895 421.349 25.5735 420.578 24.9842C419.808 24.3948 418.788 24.1002 417.518 24.1002H415.614C414.345 24.1002 413.325 24.3948 412.554 24.9842C411.784 25.5735 411.398 26.3895 411.398 27.4322C411.398 28.4748 411.784 29.2908 412.554 29.8802C413.325 30.4242 414.345 30.6962 415.614 30.6962H417.518ZM522.225 42.2562C522.225 44.8855 521.794 47.3108 520.933 49.5322C520.117 51.7535 518.893 53.6802 517.261 55.3122C515.629 56.9442 513.611 58.2135 511.209 59.1202C508.806 60.0268 506.041 60.4802 502.913 60.4802C499.785 60.4802 497.019 60.0268 494.617 59.1202C492.214 58.2135 490.197 56.9442 488.565 55.3122C486.933 53.6802 485.686 51.7535 484.825 49.5322C484.009 47.3108 483.601 44.8855 483.601 42.2562V21.4482C483.601 18.8188 484.009 16.3935 484.825 14.1722C485.686 11.9508 486.933 10.0242 488.565 8.39216C490.197 6.76017 492.214 5.49083 494.617 4.58416C497.019 3.63217 499.785 3.15617 502.913 3.15617C506.041 3.15617 508.806 3.63217 511.209 4.58416C513.611 5.49083 515.629 6.76017 517.261 8.39216C518.893 10.0242 520.117 11.9508 520.933 14.1722C521.794 16.3935 522.225 18.8188 522.225 21.4482V42.2562ZM526.101 62.6562V3.22417H540.109V22.8762L547.317 22.0602V35.9322L540.109 36.7482V59.9362L526.101 62.6562ZM508.285 21.9922C508.285 20.0428 507.786 18.5015 506.789 17.3682C505.791 16.2348 504.499 15.6682 502.913 15.6682C501.326 15.6682 500.034 16.2348 499.037 17.3682C498.039 18.5015 497.541 20.0428 497.541 21.9922V41.7122C497.541 43.6615 498.039 45.2028 499.037 46.3362C500.034 47.4242 501.326 47.9682 502.913 47.9682C504.499 47.9682 505.791 47.4242 506.789 46.3362C507.786 45.2028 508.285 43.6615 508.285 41.7122V21.9922ZM592.637 42.2562C592.637 44.8855 592.183 47.3108 591.277 49.5322C590.415 51.7535 589.146 53.6802 587.469 55.3122C585.791 56.9442 583.729 58.2135 581.281 59.1202C578.878 60.0268 576.113 60.4802 572.985 60.4802C569.857 60.4802 567.069 60.0268 564.621 59.1202C562.218 58.2135 560.178 56.9442 558.501 55.3122C556.823 53.6802 555.531 51.7535 554.625 49.5322C553.763 47.3108 553.333 44.8855 553.333 42.2562V21.4482C553.333 18.8188 553.763 16.3935 554.625 14.1722C555.531 11.9508 556.823 10.0242 558.501 8.39216C560.178 6.76017 562.218 5.49083 564.621 4.58416C567.069 3.63217 569.857 3.15617 572.985 3.15617C576.113 3.15617 578.878 3.63217 581.281 4.58416C583.729 5.49083 585.791 6.76017 587.469 8.39216C589.146 10.0242 590.415 11.9508 591.277 14.1722C592.183 16.3935 592.637 18.8188 592.637 21.4482V42.2562ZM578.697 21.9922C578.697 20.0428 578.13 18.5015 576.997 17.3682C575.909 16.2348 574.571 15.6682 572.985 15.6682C571.398 15.6682 570.038 16.2348 568.905 17.3682C567.817 18.5015 567.273 20.0428 567.273 21.9922V41.7122C567.273 43.6615 567.817 45.2028 568.905 46.3362C570.038 47.4242 571.398 47.9682 572.985 47.9682C574.571 47.9682 575.909 47.4242 576.997 46.3362C578.13 45.2028 578.697 43.6615 578.697 41.7122V21.9922ZM597.533 62.6562V3.22417H611.541V59.9362L597.533 62.6562ZM624.832 62.0442V46.9482L664.544 44.6362V43.2082L624.832 45.5202V37.9722L678.552 34.5722V49.3282L638.84 51.7082V53.2042L679.844 50.8242V62.0442H624.832ZM620.208 36.6122V27.2962L683.312 23.3522V32.6682L620.208 36.6122ZM625.308 25.3242V3.22417H678.212V11.8602H639.316V15.7362L678.212 13.8322V21.9922L625.308 25.3242ZM693.544 62.0442V46.2682L733.256 43.9562V42.5282L693.544 44.8402V37.2922L747.264 33.8922V49.3282L707.552 51.7082V53.2042L748.556 50.8242V62.0442H693.544ZM688.92 35.7962V26.4802L752.024 22.5362V31.8522L688.92 35.7962ZM710.136 22.6042C707.416 22.6042 704.946 22.3775 702.724 21.9242C700.548 21.4708 698.69 20.8135 697.148 19.9522C695.607 19.0455 694.406 17.9802 693.544 16.7562C692.728 15.4868 692.32 14.0588 692.32 12.4722C692.32 10.8855 692.728 9.48017 693.544 8.25617C694.406 6.98683 695.607 5.9215 697.148 5.06017C698.69 4.19883 700.548 3.5415 702.724 3.08817C704.946 2.63483 707.416 2.40816 710.136 2.40816H730.74C733.46 2.40816 735.908 2.63483 738.084 3.08817C740.306 3.5415 742.187 4.2215 743.728 5.12817C745.27 5.9895 746.448 7.05483 747.264 8.32416C748.126 9.54817 748.556 10.9535 748.556 12.5402C748.556 14.1268 748.126 15.5548 747.264 16.8242C746.448 18.0482 745.27 19.0908 743.728 19.9522C742.187 20.8135 740.306 21.4708 738.084 21.9242C735.908 22.3775 733.46 22.6042 730.74 22.6042H710.136ZM710.272 11.2482C709.094 11.2482 708.142 11.3162 707.416 11.4522C706.691 11.5882 706.328 11.9282 706.328 12.4722C706.328 13.0615 706.691 13.4242 707.416 13.5602C708.142 13.6962 709.094 13.7642 710.272 13.7642H730.604C731.783 13.7642 732.735 13.6962 733.46 13.5602C734.186 13.4242 734.548 13.0842 734.548 12.5402C734.548 11.9508 734.186 11.5882 733.46 11.4522C732.735 11.3162 731.783 11.2482 730.604 11.2482H710.272ZM821.778 62.6562V48.0362L806.002 49.6682V61.6362L792.266 63.6762V51.0282L777.17 52.5242V39.8082L821.778 35.3202V3.22417H835.786V59.9362L821.778 62.6562ZM818.65 19.0002C818.65 21.4482 818.152 23.6922 817.154 25.7322C816.202 27.7722 814.865 29.5402 813.142 31.0362C811.42 32.5322 809.334 33.6882 806.886 34.5042C804.484 35.3202 801.832 35.7282 798.93 35.7282C795.984 35.7282 793.286 35.3202 790.838 34.5042C788.436 33.6428 786.373 32.4642 784.65 30.9682C782.928 29.4722 781.59 27.7042 780.638 25.6642C779.686 23.5788 779.21 21.3122 779.21 18.8642C779.21 16.4162 779.686 14.1722 780.638 12.1322C781.59 10.0922 782.928 8.34683 784.65 6.89617C786.373 5.40017 788.436 4.24417 790.838 3.42817C793.286 2.56683 795.984 2.13617 798.93 2.13617C801.877 2.13617 804.552 2.56683 806.954 3.42817C809.402 4.24417 811.488 5.40017 813.21 6.89617C814.933 8.39217 816.27 10.1828 817.222 12.2682C818.174 14.3082 818.65 16.5522 818.65 19.0002ZM804.642 19.0002C804.642 17.4588 804.076 16.2348 802.942 15.3282C801.854 14.3762 800.517 13.9002 798.93 13.9002C797.344 13.9002 796.006 14.3308 794.918 15.1922C793.83 16.0535 793.264 17.2775 793.218 18.8642C793.218 20.4055 793.762 21.6522 794.85 22.6042C795.984 23.5108 797.344 23.9642 798.93 23.9642C800.472 23.9642 801.786 23.5335 802.874 22.6722C804.008 21.8108 804.597 20.5868 804.642 19.0002ZM892.87 62.6562V36.2722L890.218 36.6122V59.2562L878.046 61.7042V3.22417H890.218V22.7402L892.87 22.4002V3.22417H905.178V60.2762L892.87 62.6562ZM875.122 44.7042C875.122 49.8722 873.83 53.8615 871.246 56.6722C868.662 59.4828 864.99 60.8882 860.23 60.8882C855.47 60.8882 851.776 59.4828 849.146 56.6722C846.562 53.8615 845.27 49.8722 845.27 44.7042V36.4082C845.27 33.3255 845.95 30.9908 847.31 29.4042H843.638V17.5042H876.686V29.4042H873.014C873.694 30.1748 874.216 31.1495 874.578 32.3282C874.941 33.4615 875.122 34.8215 875.122 36.4082V44.7042ZM849.758 15.6002V3.49617H870.906V15.6002H849.758ZM863.154 36.4082C863.154 35.0935 862.95 33.9375 862.542 32.9402C862.134 31.9428 861.341 31.4442 860.162 31.4442C858.984 31.4442 858.19 31.9428 857.782 32.9402C857.42 33.9375 857.238 35.0935 857.238 36.4082V43.6842C857.238 44.9988 857.442 46.1548 857.85 47.1522C858.258 48.1495 859.052 48.6482 860.23 48.6482C861.364 48.6482 862.134 48.1495 862.542 47.1522C862.95 46.1548 863.154 44.9988 863.154 43.6842V36.4082ZM29.868 123.552L12.528 133.344L6 124.64L22.456 115.052V113.964H9.536V103.832H49.044V113.964H36.804V114.712L51.016 121.036L45.168 130.148L29.868 123.552ZM52.308 152.316V142.048L13.14 145.108V133.888L66.316 129.128V152.316H52.308ZM52.308 128.72V93.2242H66.316V106.756L73.524 105.94V119.812L66.316 120.628V127.428L52.308 128.72ZM17.016 102.336V92.0002H41.904V102.336H17.016ZM114.9 113.964C115.807 115.37 116.26 116.934 116.26 118.656C116.26 120.696 115.807 122.51 114.9 124.096C114.039 125.638 112.837 126.952 111.296 128.04C109.8 129.083 108.055 129.876 106.06 130.42C104.065 130.964 101.98 131.236 99.8039 131.236H96.8119C94.6359 131.236 92.5505 130.964 90.5559 130.42C88.5612 129.876 86.7932 129.083 85.2519 128.04C83.7559 126.998 82.5545 125.683 81.6479 124.096C80.7865 122.51 80.3559 120.696 80.3559 118.656C80.3559 116.843 80.7865 115.279 81.6479 113.964H77.9079V103.832H118.776V113.964H114.9ZM83.4839 151.16V134.16L97.4919 132.868V140.484L135.64 137.084V151.16H83.4839ZM121.02 134.024V93.2242H135.028V110.836L142.236 110.02V123.892L135.028 124.708V132.596L121.02 134.024ZM86.0679 102.336V92.0002H110.956V102.336H86.0679ZM99.2599 120.696C100.529 120.696 101.549 120.424 102.32 119.88C103.091 119.291 103.476 118.475 103.476 117.432C103.476 116.389 103.091 115.573 102.32 114.984C101.549 114.395 100.529 114.1 99.2599 114.1H97.3559C96.0865 114.1 95.0665 114.395 94.2959 114.984C93.5252 115.573 93.1399 116.389 93.1399 117.432C93.1399 118.475 93.5252 119.291 94.2959 119.88C95.0665 120.424 96.0865 120.696 97.3559 120.696H99.2599ZM171.326 150.004L161.874 139.94L188.326 116.344V106.62H166.566V94.1082H202.674V121.784L171.326 150.004ZM207.162 152.656V93.2242H221.17V112.944L229.058 112.06V125.932L221.17 126.816V149.936L207.162 152.656ZM266.49 151.704V126.136L259.35 126.952V124.436L241.738 150.004L231.538 141.98L248.878 116.344V106.62H235.55V94.1082H261.186V112.876L266.49 112.332V93.2242H278.662V149.256L266.49 151.704ZM281.654 152.656V93.2242H293.962V150.276L281.654 152.656ZM306.574 152.044V138.172L346.286 135.86V134.568L306.574 136.88V129.74L360.294 126.34V140.552L320.582 142.932V144.292L361.586 141.912V152.044H306.574ZM301.95 128.584V120.628L365.054 116.684V124.64L301.95 128.584ZM307.05 118.792V103.288L345.946 101.384V100.364H307.05V93.2242H359.954V106.688L321.058 109.068V110.428L359.954 108.048V115.528L307.05 118.792ZM425.968 113.964C426.875 115.37 427.328 116.934 427.328 118.656C427.328 120.696 426.875 122.51 425.968 124.096C425.107 125.638 423.905 126.952 422.364 128.04C420.868 129.083 419.123 129.876 417.128 130.42C415.133 130.964 413.048 131.236 410.872 131.236H407.88C405.704 131.236 403.619 130.964 401.624 130.42C399.629 129.876 397.861 129.083 396.32 128.04C394.824 126.998 393.623 125.683 392.716 124.096C391.855 122.51 391.424 120.696 391.424 118.656C391.424 116.843 391.855 115.279 392.716 113.964H388.976V103.832H429.844V113.964H425.968ZM394.552 151.16V134.16L408.56 132.868V140.484L446.708 137.084V151.16H394.552ZM432.088 134.024V93.2242H446.096V110.836L453.304 110.02V123.892L446.096 124.708V132.596L432.088 134.024ZM397.136 102.336V92.0002H422.024V102.336H397.136ZM410.328 120.696C411.597 120.696 412.617 120.424 413.388 119.88C414.159 119.291 414.544 118.475 414.544 117.432C414.544 116.389 414.159 115.573 413.388 114.984C412.617 114.395 411.597 114.1 410.328 114.1H408.424C407.155 114.1 406.135 114.395 405.364 114.984C404.593 115.573 404.208 116.389 404.208 117.432C404.208 118.475 404.593 119.291 405.364 119.88C406.135 120.424 407.155 120.696 408.424 120.696H410.328ZM497.604 128.856V136.064L483.188 137.084V129.808L457.484 131.44V120.424L520.588 116.344V127.36L497.604 128.856ZM462.584 117.568V92.9522H476.592V105.192L515.488 102.676V114.1L462.584 117.568ZM462.72 151.16V133.344L476.728 132.528V140.552L516.984 137.832V151.16H462.72ZM560.128 151.704V126.952L557.204 127.292V133.752C557.204 136.2 556.864 138.467 556.184 140.552C555.549 142.592 554.597 144.338 553.328 145.788C552.058 147.284 550.472 148.44 548.568 149.256C546.664 150.072 544.488 150.48 542.04 150.48C539.546 150.48 537.348 150.072 535.444 149.256C533.585 148.44 531.998 147.284 530.684 145.788C529.414 144.338 528.44 142.592 527.76 140.552C527.125 138.467 526.808 136.2 526.808 133.752V110.7C526.808 108.252 527.125 106.008 527.76 103.968C528.44 101.883 529.414 100.092 530.684 98.5962C531.998 97.1002 533.585 95.9442 535.444 95.1282C537.348 94.3122 539.546 93.9042 542.04 93.9042C544.488 93.9042 546.664 94.3122 548.568 95.1282C550.472 95.9442 552.058 97.1002 553.328 98.5962C554.597 100.092 555.549 101.883 556.184 103.968C556.864 106.008 557.204 108.252 557.204 110.7V113.42L560.128 113.08V93.2242H572.3V149.256L560.128 151.704ZM574.612 152.656V93.2242H586.92V150.276L574.612 152.656ZM544.964 109.34C544.964 108.116 544.692 107.164 544.148 106.484C543.604 105.759 542.901 105.396 542.04 105.396C541.133 105.396 540.408 105.759 539.864 106.484C539.32 107.164 539.048 108.116 539.048 109.34V135.112C539.048 136.291 539.32 137.243 539.864 137.968C540.408 138.648 541.133 138.988 542.04 138.988C542.901 138.988 543.604 138.648 544.148 137.968C544.692 137.243 544.964 136.291 544.964 135.112V109.34ZM659.054 133.004V124.708L651.982 125.456V119.676C650.531 122.26 648.333 124.368 645.386 126C642.439 127.587 638.677 128.38 634.098 128.38C630.743 128.38 627.819 127.95 625.326 127.088C622.878 126.182 620.815 124.958 619.138 123.416C617.506 121.875 616.282 120.107 615.466 118.112C614.65 116.072 614.242 113.919 614.242 111.652V108.864C614.242 106.643 614.65 104.512 615.466 102.472C616.282 100.432 617.506 98.6642 619.138 97.1682C620.815 95.6268 622.878 94.4028 625.326 93.4962C627.819 92.5895 630.743 92.1362 634.098 92.1362C638.677 92.1362 642.439 92.9522 645.386 94.5842C648.333 96.2162 650.531 98.3242 651.982 100.908V97.1002L659.054 96.3522V93.2242H673.062V131.576L659.054 133.004ZM621.518 151.16V131.78L635.526 130.488V139.464L673.674 136.064V151.16H621.518ZM639.946 109.884C639.946 107.98 639.47 106.461 638.518 105.328C637.611 104.195 636.138 103.628 634.098 103.628C632.013 103.628 630.494 104.195 629.542 105.328C628.635 106.461 628.182 107.98 628.182 109.884V110.7C628.182 112.559 628.635 114.055 629.542 115.188C630.494 116.321 632.013 116.888 634.098 116.888C636.138 116.888 637.611 116.321 638.518 115.188C639.47 114.055 639.946 112.559 639.946 110.7V109.884ZM659.054 108.524L653.954 109.068V111.652C653.954 111.879 653.954 112.128 653.954 112.4C653.954 112.627 653.931 112.853 653.886 113.08L659.054 112.536V108.524ZM689.89 152.044V134.5L727.766 131.1V129.4L689.89 132.8V124.436L741.774 119.2V137.22L703.898 140.62V142.524L743.066 139.124V152.044H689.89ZM727.766 118.928V117.908L720.762 118.656V114.916L685.13 124.232L680.438 114.44L706.89 107.096V104.104H685.13V93.2242H721.238V95.2642L727.766 94.5842V93.2242H741.774V117.5L727.766 118.928ZM727.766 105.328L721.238 106.076V107.844L727.766 107.164V105.328ZM755.882 151.568V129.06L769.89 127.632V130.76L793.758 128.176V125.32L807.766 123.892V151.568H755.882ZM788.25 112.196C788.748 113.194 788.998 114.304 788.998 115.528C788.998 117.432 788.544 119.064 787.638 120.424C786.776 121.784 785.575 122.917 784.034 123.824C782.538 124.685 780.792 125.32 778.798 125.728C776.803 126.136 774.718 126.34 772.542 126.34H769.55C767.374 126.34 765.288 126.136 763.294 125.728C761.299 125.32 759.531 124.685 757.99 123.824C756.494 122.963 755.292 121.852 754.386 120.492C753.524 119.087 753.094 117.432 753.094 115.528C753.094 114.214 753.32 113.103 753.774 112.196H750.646V102.812H791.514V112.196H788.25ZM807.766 117.228V122.124L793.758 123.552V93.2242H807.766V103.356L814.974 102.54V116.412L807.766 117.228ZM758.806 101.452V91.8642H783.694V101.452H758.806ZM793.758 137.152L769.89 139.6V141.708L793.758 139.668V137.152ZM771.998 116.412C773.086 116.412 774.06 116.276 774.922 116.004C775.783 115.687 776.214 115.12 776.214 114.304C776.214 113.579 775.851 113.08 775.126 112.808C774.4 112.491 773.562 112.287 772.61 112.196H769.414C768.462 112.287 767.623 112.491 766.898 112.808C766.218 113.08 765.878 113.579 765.878 114.304C765.878 115.12 766.308 115.687 767.17 116.004C768.031 116.276 769.006 116.412 770.094 116.412H771.998ZM865.19 152.656V144.496L822.01 149.528V93.4282H835.95V133.956L865.19 130.896V93.2242H879.198V149.936L865.19 152.656ZM931.181 152.656V145.312L889.361 150.208V94.1082H925.809V106.96H903.301V135.316L931.181 132.392V93.2242H945.189V112.876L952.397 112.06V125.932L945.189 126.748V149.936L931.181 152.656Z" fill="#2B6A5C"/>
</g>
<defs>
<filter id="filter0_d_19_13" x="0" y="0" width="958.397" height="162.656" filterUnits="userSpaceOnUse" color-interpolation-filters="sRGB">
<feFlood flood-opacity="0" result="BackgroundImageFix"/>
<feColorMatrix in="SourceAlpha" type="matrix" values="0 0 0 0 0 0 0 0 0 0 0 0 0 0 0 0 0 0 127 0" result="hardAlpha"/>
<feOffset dy="4"/>
<feGaussianBlur stdDeviation="3"/>
<feComposite in2="hardAlpha" operator="out"/>
<feColorMatrix type="matrix" values="0 0 0 0 0 0 0 0 0 0 0 0 0 0 0 0 0 0 0.15 0"/>
<feBlend mode="normal" in2="BackgroundImageFix" result="effect1_dropShadow_19_13"/>
<feBlend mode="normal" in="SourceGraphic" in2="effect1_dropShadow_19_13" result="shape"/>
</filter>
</defs>
</svg>
