<svg width="625" height="114" viewBox="0 0 625 114" fill="none" xmlns="http://www.w3.org/2000/svg">
<path d="M68.224 50.3041C68.224 41.9415 66.3467 35.4988 62.592 30.9761C58.9227 26.3681 54.016 24.0641 47.872 24.0641C41.728 24.0641 36.7787 26.3681 33.024 30.9761C29.3547 35.4988 27.52 41.9415 27.52 50.3041V62.7201C27.52 70.9121 29.3547 77.3548 33.024 82.0481C36.7787 86.6561 41.728 88.9601 47.872 88.9601C54.016 88.9601 58.9227 86.6561 62.592 82.0481C66.3467 77.3548 68.224 70.9121 68.224 62.7201V50.3041ZM95.488 60.8001C95.6587 68.9068 94.592 76.1601 92.288 82.5601C90.0693 88.8748 86.912 94.2508 82.816 98.6881C78.72 103.125 73.7707 106.539 67.968 108.928C62.2507 111.403 55.936 112.725 49.024 112.896C42.112 113.067 35.712 112.043 29.824 109.824C24.0213 107.691 18.944 104.491 14.592 100.224C10.3253 95.9575 6.95467 90.7095 4.48001 84.4801C2.00534 78.1655 0.682674 70.9975 0.512008 62.9761L0.256008 52.2241C0.085341 44.2028 1.10934 37.0348 3.32801 30.7201C5.63201 24.3201 8.83201 18.9015 12.928 14.4641C17.024 9.94145 21.9307 6.48545 27.648 4.09612C33.4507 1.62145 39.808 0.298782 46.72 0.128113C53.632 0.0427806 59.9893 1.06678 65.792 3.20012C71.68 5.33345 76.7573 8.57612 81.024 12.9281C85.376 17.1948 88.7893 22.4855 91.264 28.8001C93.7387 35.0295 95.0613 42.1548 95.232 50.1761L95.488 60.8001ZM173.474 110.848H173.346V110.592L137.506 46.3361V106.624L110.37 112.256V3.45612H137.506L173.346 68.7361V3.45612H200.482V105.344L173.474 110.848ZM283.221 110.848V64.2561L247.381 67.9681V106.88L220.245 112.256V3.45612H247.381V44.0321L283.221 40.3201V3.45612H310.357V105.6L283.221 110.848ZM397.192 109.568L390.28 86.2721L352.904 90.3681L347.528 109.568H319.752L352.904 3.45612H389.64L424.968 109.568H397.192ZM371.592 23.4241L359.816 65.6641L383.368 62.9761L371.592 23.4241ZM496.212 109.568L477.908 73.9841L460.756 75.9041V106.88L433.492 112.256V3.45612H483.924C489.897 3.45612 495.188 4.35212 499.796 6.14412C504.489 7.93612 508.415 10.3681 511.572 13.4401C514.815 16.4268 517.247 19.9255 518.868 23.9361C520.575 27.8615 521.428 32.0001 521.428 36.3521C521.428 43.1788 519.807 49.4081 516.564 55.0401C513.407 60.5868 508.628 64.9815 502.228 68.2241L526.036 109.568H496.212ZM480.852 50.9441C484.948 50.5175 488.191 49.3228 490.58 47.3601C493.055 45.3121 494.292 42.4535 494.292 38.7841C494.292 35.0294 493.055 32.2135 490.58 30.3361C488.191 28.3735 484.948 27.3921 480.852 27.3921H460.756V52.7361L480.852 50.9441ZM597.691 3.45612H624.827V65.5361C624.827 72.7895 623.76 79.3175 621.627 85.1201C619.494 90.9228 616.464 95.8721 612.539 99.9681C608.614 104.064 603.878 107.179 598.331 109.312C592.784 111.531 586.555 112.64 579.643 112.64C572.731 112.64 566.502 111.531 560.955 109.312C555.408 107.179 550.63 104.064 546.619 99.9681C542.694 95.8721 539.664 90.9228 537.531 85.1201C535.398 79.3175 534.331 72.7895 534.331 65.5361V3.45612H561.595V65.0241C561.595 68.5228 562.022 71.7228 562.875 74.6241C563.728 77.5255 564.923 80.0428 566.459 82.1761C568.08 84.2241 570 85.8455 572.219 87.0401C574.438 88.1495 576.912 88.7041 579.643 88.7041C582.374 88.7041 584.848 88.1495 587.067 87.0401C589.286 85.8455 591.163 84.2241 592.699 82.1761C594.32 80.0428 595.558 77.5255 596.411 74.6241C597.264 71.7228 597.691 68.5228 597.691 65.0241V3.45612Z" fill="#4F9A89" fill-opacity="0.09"/>
</svg>
