<svg width="336" height="183" viewBox="0 0 336 183" fill="none" xmlns="http://www.w3.org/2000/svg">
<rect width="336" height="183" fill="#EEEEEE"/>
<path d="M145.48 97.5C144.11 97.5 143 96.3877 143 95.0165V54.9835C143 53.6119 144.138 52.5 145.48 52.5H190.52C191.89 52.5 193 53.6124 193 54.9835V95.0165C193 96.388 191.862 97.5 190.52 97.5H145.48ZM188 82.5V57.5H148V92.5L173 67.5L188 82.5ZM188 89.571L173 74.571L155.071 92.5H188V89.571ZM158 72.5C155.239 72.5 153 70.2615 153 67.5C153 64.7386 155.239 62.5 158 62.5C160.761 62.5 163 64.7386 163 67.5C163 70.2615 160.761 72.5 158 72.5Z" fill="#424242"/>
<path d="M110.144 125.512C110.144 126.44 109.984 127.296 109.664 128.08C109.36 128.864 108.912 129.544 108.32 130.12C107.728 130.696 107 131.144 106.136 131.464C105.288 131.784 104.312 131.944 103.208 131.944C102.104 131.944 101.12 131.784 100.256 131.464C99.408 131.144 98.688 130.696 98.096 130.12C97.504 129.544 97.048 128.864 96.728 128.08C96.424 127.296 96.272 126.44 96.272 125.512V118.168C96.272 117.24 96.424 116.384 96.728 115.6C97.048 114.816 97.504 114.136 98.096 113.56C98.688 112.984 99.408 112.536 100.256 112.216C101.12 111.88 102.104 111.712 103.208 111.712C104.312 111.712 105.288 111.88 106.136 112.216C107 112.536 107.728 112.984 108.32 113.56C108.912 114.136 109.36 114.816 109.664 115.6C109.984 116.384 110.144 117.24 110.144 118.168V125.512ZM105.224 118.36C105.224 117.672 105.024 117.128 104.624 116.728C104.24 116.328 103.768 116.128 103.208 116.128C102.648 116.128 102.168 116.328 101.768 116.728C101.384 117.128 101.192 117.672 101.192 118.36V125.32C101.192 126.008 101.384 126.552 101.768 126.952C102.168 127.336 102.648 127.528 103.208 127.528C103.768 127.528 104.24 127.336 104.624 126.952C105.024 126.552 105.224 126.008 105.224 125.32V118.36ZM111.872 132.712V111.736H116.816V131.752L111.872 132.712ZM120.163 131.848V112.048H133.507V130.288L120.163 131.848ZM128.587 116.584H125.083V126.592L128.587 126.232V116.584ZM135.403 132.712V111.736H140.347V131.752L135.403 132.712ZM154.734 131.536L150.511 125.368L146.095 131.776L142.062 129.04L148.015 119.992V116.584H143.503V112.048H157.807V116.584H153.079V120.04L158.767 128.8L154.734 131.536ZM158.935 132.712V111.736H163.879V131.752L158.935 132.712ZM183.026 118.984L173.858 121.888L171.866 118.504L180.506 115.72V115.264H173.57V111.76H192.482V115.264H185.546V115.72L194.186 117.4L192.194 120.784L183.026 118.984ZM186.05 125.104V127.096L180.962 127.456V125.44L171.89 125.992V122.248L194.162 120.856V124.6L186.05 125.104ZM173.738 132.184V126.616L178.682 126.328V128.44L192.89 127.48V132.184H173.738ZM196.429 131.848V111.832H201.349V117.688L204.853 117.328V111.832H209.773V130.288L196.429 131.848ZM204.853 121.792L201.349 122.152V126.592L204.853 126.232V121.792ZM211.669 132.712V111.736H216.613V131.752L211.669 132.712ZM225.288 132.736C223.704 132.736 222.448 132.4 221.52 131.728C220.608 131.072 220.152 130.072 220.152 128.728C220.152 128.056 220.272 127.488 220.512 127.024C220.752 126.544 221.096 126.144 221.544 125.824C221.992 125.504 222.528 125.264 223.152 125.104C223.792 124.928 224.504 124.816 225.288 124.768L227.544 124.648V123.76L218.952 124.288V120.76L239.184 119.512L230.088 118.264L220.2 120.616L219.168 117.448L227.568 115.384V115.144H220.632V111.736H239.544V115.144H232.608V115.384L240.528 116.632L239.52 119.488L241.224 119.368V122.896L232.632 123.448V124.336L235.104 124.168C235.888 124.12 236.584 124.192 237.192 124.384C237.8 124.576 238.312 124.864 238.728 125.248C239.144 125.616 239.456 126.072 239.664 126.616C239.888 127.16 240 127.76 240 128.416C240 129.76 239.576 130.816 238.728 131.584C237.896 132.352 236.688 132.736 235.104 132.736H225.288ZM226.08 128.248C225.84 128.264 225.6 128.296 225.36 128.344C225.12 128.376 225 128.496 225 128.704C225 128.912 225.12 129.032 225.36 129.064C225.6 129.096 225.84 129.104 226.08 129.088L234.168 128.704C234.408 128.688 234.632 128.648 234.84 128.584C235.048 128.52 235.152 128.384 235.152 128.176C235.152 127.968 235.064 127.84 234.888 127.792C234.712 127.728 234.504 127.704 234.264 127.72L226.08 128.248Z" fill="#424242"/>
</svg>
