<svg width="421" height="94" viewBox="0 0 421 94" fill="none" xmlns="http://www.w3.org/2000/svg">
<path d="M1.488 26.112C0.944002 25.984 0.560002 25.696 0.336002 25.248C0.112002 24.768 1.75834e-06 24.208 1.75834e-06 23.568C1.75834e-06 22.736 0.128002 21.872 0.384002 20.976C0.640002 20.048 0.896002 19.328 1.152 18.816C1.472 18.144 1.904 17.408 2.448 16.608C3.024 15.808 3.6 15.184 4.176 14.736C3.984 14.544 3.872 14.352 3.84 14.16C3.84 13.968 3.888 13.808 3.984 13.68C4.08 13.552 4.224 13.472 4.416 13.44C4.608 13.376 4.8 13.392 4.992 13.488C6.272 14.032 7.296 14.672 8.064 15.408C8.832 16.112 9.136 17.088 8.976 18.336C8.848 19.296 8.608 20.144 8.256 20.88C7.904 21.584 7.472 22.32 6.96 23.088C6.64 23.568 6.256 24.016 5.808 24.432C5.36 24.848 4.88 25.2 4.368 25.488C3.856 25.776 3.344 25.984 2.832 26.112C2.352 26.24 1.904 26.24 1.488 26.112ZM19.104 6.19198C18.688 8.27198 18.288 10.352 17.904 12.432C17.52 14.512 17.152 16.656 16.8 18.864C17.312 18.736 17.888 18.608 18.528 18.48C19.2 18.32 19.872 18.192 20.544 18.096C21.248 18 21.92 17.92 22.56 17.856C23.232 17.792 23.824 17.776 24.336 17.808C24.72 17.84 24.912 18.016 24.912 18.336C24.912 18.624 24.752 18.8 24.432 18.864C23.408 19.088 22.16 19.344 20.688 19.632C19.248 19.888 17.856 20.336 16.512 20.976C16.256 22.896 16.032 24.896 15.84 26.976C15.648 29.024 15.52 31.184 15.456 33.456C15.456 33.808 15.376 34.064 15.216 34.224C15.056 34.384 14.88 34.48 14.688 34.512C14.528 34.512 14.368 34.448 14.208 34.32C14.048 34.16 13.968 33.92 13.968 33.6C13.904 31.52 13.952 29.328 14.112 27.024C14.272 24.688 14.496 22.304 14.784 19.872C15.104 17.408 15.472 14.944 15.888 12.48C16.336 9.98399 16.816 7.55199 17.328 5.18399C17.392 4.79998 17.52 4.55998 17.712 4.46398C17.936 4.33599 18.176 4.30399 18.432 4.36798C18.848 4.43198 19.088 4.63998 19.152 4.99199C19.216 5.34398 19.2 5.74398 19.104 6.19198ZM2.832 19.584C2.608 20.128 2.4 20.672 2.208 21.216C2.048 21.728 1.92 22.208 1.824 22.656C1.76 23.104 1.76 23.488 1.824 23.808C1.888 24.096 2.032 24.272 2.256 24.336C2.8 24.464 3.36 24.336 3.936 23.952C4.512 23.568 5.168 22.864 5.904 21.84C6.448 21.072 6.8 20.352 6.96 19.68C7.12 18.976 7.232 18.432 7.296 18.048C7.36 17.6 7.248 17.152 6.96 16.704C6.704 16.256 6.256 15.888 5.616 15.6C5.04 16.08 4.512 16.656 4.032 17.328C3.584 18 3.184 18.752 2.832 19.584ZM45.018 4.51199C45.082 4.25599 45.21 4.06398 45.402 3.93598C45.626 3.80798 45.866 3.79198 46.122 3.88799C46.506 4.04799 46.73 4.27199 46.794 4.55999C46.89 4.84799 46.858 5.31199 46.698 5.95198C45.578 10.304 44.666 14.848 43.962 19.584C43.258 24.288 42.73 28.912 42.378 33.456C42.314 33.712 42.202 33.904 42.042 34.032C41.882 34.16 41.722 34.224 41.562 34.224C41.21 34.224 41.034 33.952 41.034 33.408C41.066 28.928 41.434 24.256 42.138 19.392C42.842 14.528 43.802 9.56799 45.018 4.51199ZM29.514 26.112C28.778 26.08 28.218 25.792 27.834 25.248C27.482 24.672 27.242 24 27.114 23.232C26.986 22.432 26.954 21.584 27.018 20.688C27.082 19.792 27.178 19.008 27.306 18.336C27.37 17.92 27.482 17.456 27.642 16.944C27.802 16.4 27.978 15.856 28.17 15.312C28.362 14.768 28.586 14.256 28.842 13.776C29.098 13.264 29.354 12.864 29.61 12.576L29.082 12.432C28.858 12.336 28.778 12.112 28.842 11.76C28.938 11.408 29.21 11.248 29.658 11.28C30.426 11.344 31.146 11.424 31.818 11.52C32.49 11.584 33.066 11.76 33.546 12.048C34.058 12.336 34.458 12.752 34.746 13.296C35.066 13.808 35.226 14.528 35.226 15.456C35.226 16.288 35.114 17.2 34.89 18.192C34.698 19.184 34.426 20.144 34.074 21.072C33.818 21.648 33.514 22.24 33.162 22.848C32.842 23.456 32.474 24.016 32.058 24.528C31.674 25.008 31.258 25.408 30.81 25.728C30.394 26.016 29.962 26.144 29.514 26.112ZM29.034 18.672C28.97 19.088 28.906 19.584 28.842 20.16C28.778 20.736 28.746 21.296 28.746 21.84C28.778 22.352 28.858 22.8 28.986 23.184C29.146 23.536 29.402 23.728 29.754 23.76C30.33 23.792 30.842 23.456 31.29 22.752C31.738 22.048 32.17 21.088 32.586 19.872C32.874 19.008 33.082 18.16 33.21 17.328C33.338 16.464 33.402 15.84 33.402 15.456C33.402 14.624 33.242 14.032 32.922 13.68C32.602 13.296 32.026 13.072 31.194 13.008C30.682 13.808 30.234 14.704 29.85 15.696C29.498 16.656 29.226 17.648 29.034 18.672ZM74.883 6.71999C74.659 8.28798 74.467 9.67999 74.307 10.896C74.147 12.112 73.987 13.248 73.827 14.304C73.699 15.328 73.555 16.32 73.395 17.28C73.267 18.24 73.091 19.248 72.867 20.304C72.611 21.552 72.387 22.72 72.195 23.808C72.003 24.896 71.827 26.016 71.667 27.168C71.507 28.32 71.347 29.552 71.187 30.864C71.059 32.176 70.915 33.648 70.755 35.28C70.723 35.6 70.627 35.84 70.467 36C70.339 36.192 70.195 36.304 70.035 36.336C69.875 36.368 69.731 36.304 69.603 36.144C69.475 36.016 69.411 35.792 69.411 35.472C69.443 32.784 69.603 30.256 69.891 27.888C70.179 25.488 70.547 22.96 70.995 20.304C71.187 19.248 71.347 18.24 71.475 17.28C71.603 16.32 71.731 15.296 71.859 14.208C72.019 13.12 72.179 11.92 72.339 10.608C72.499 9.29598 72.691 7.77598 72.915 6.04799C72.979 5.66399 73.107 5.42398 73.299 5.32798C73.491 5.23199 73.715 5.19999 73.971 5.23199C74.739 5.26398 75.043 5.75998 74.883 6.71999ZM50.931 30.144C50.579 30.272 50.227 30.336 49.875 30.336C49.523 30.336 49.251 30.208 49.059 29.952C48.963 29.728 48.931 29.488 48.963 29.232C49.027 28.976 49.203 28.8 49.491 28.704C52.339 27.712 55.155 26.944 57.939 26.4C60.755 25.824 63.699 25.632 66.771 25.824C67.091 25.824 67.331 25.904 67.491 26.064C67.651 26.192 67.731 26.336 67.731 26.496C67.731 26.656 67.651 26.8 67.491 26.928C67.363 27.056 67.155 27.12 66.867 27.12C65.235 27.12 63.747 27.184 62.403 27.312C61.059 27.44 59.763 27.632 58.515 27.888C57.299 28.112 56.067 28.416 54.819 28.8C53.603 29.184 52.307 29.632 50.931 30.144ZM56.451 20.064C55.651 20.256 55.043 20.192 54.627 19.872C54.211 19.552 53.939 19.12 53.811 18.576C53.683 18 53.651 17.376 53.715 16.704C53.811 16 53.955 15.36 54.147 14.784C54.499 13.76 54.899 12.768 55.347 11.808C55.827 10.816 56.195 10.048 56.451 9.50398C56.611 9.15199 56.819 8.83199 57.075 8.54399C57.331 8.25599 57.667 8.07999 58.083 8.01599C58.851 7.85598 59.587 7.95198 60.291 8.30399C60.995 8.65598 61.523 9.13598 61.875 9.74398C62.483 10.768 62.675 11.872 62.451 13.056C62.259 14.208 61.843 15.296 61.203 16.32C60.435 17.504 59.683 18.384 58.947 18.96C58.211 19.504 57.379 19.872 56.451 20.064ZM59.907 15.408C60.387 14.64 60.643 13.824 60.675 12.96C60.707 12.096 60.643 11.392 60.483 10.848C60.355 10.4 60.099 10.064 59.715 9.83999C59.363 9.61598 58.931 9.50398 58.419 9.50398C57.651 11.104 57.075 12.32 56.691 13.152C56.339 13.952 56.099 14.576 55.971 15.024C55.523 16.24 55.363 17.12 55.491 17.664C55.651 18.208 55.955 18.448 56.403 18.384C57.043 18.288 57.667 17.984 58.275 17.472C58.883 16.928 59.427 16.24 59.907 15.408ZM98.1998 14.16C97.6878 13.936 97.3518 13.584 97.1918 13.104C97.0318 12.592 96.9678 12.048 96.9998 11.472C97.0318 10.896 97.1278 10.304 97.2878 9.69598C97.4798 9.05599 97.6718 8.47999 97.8638 7.96798C98.1198 7.23198 98.3918 6.51198 98.6798 5.80799C98.9998 5.10399 99.2878 4.47999 99.5438 3.93598C99.7998 3.45599 100.072 3.23199 100.36 3.26398C100.68 3.26398 100.904 3.39198 101.032 3.64799C101.64 3.35999 102.296 3.24798 103 3.31198C103.704 3.34398 104.312 3.53598 104.824 3.88799C105.592 4.43199 105.976 5.19999 105.976 6.19198C105.976 6.76798 105.848 7.37599 105.592 8.01599C105.368 8.65599 105.064 9.23199 104.68 9.74398C104.392 10.128 104.008 10.624 103.528 11.232C103.048 11.84 102.504 12.4 101.896 12.912C101.288 13.424 100.664 13.824 100.024 14.112C99.3838 14.4 98.7758 14.416 98.1998 14.16ZM103.144 9.11998C103.272 8.95998 103.432 8.70398 103.624 8.35198C103.816 7.96798 103.976 7.56798 104.104 7.15199C104.232 6.73599 104.296 6.35198 104.296 5.99998C104.328 5.61598 104.232 5.32799 104.008 5.13599C103.496 4.71999 102.952 4.54399 102.376 4.60798C101.832 4.67199 101.4 4.76799 101.08 4.89598C100.792 5.50399 100.52 6.14399 100.264 6.81598C100.008 7.45598 99.7998 8.06398 99.6398 8.63998C99.2878 9.82398 99.0798 10.736 99.0158 11.376C98.9518 12.016 99.1278 12.304 99.5438 12.24C100.12 12.176 100.696 11.84 101.272 11.232C101.88 10.592 102.504 9.88799 103.144 9.11998ZM100.216 28.56C100.216 27.76 100.328 26.8 100.552 25.68C100.776 24.528 101.064 23.36 101.416 22.176C101.8 20.992 102.2 19.84 102.616 18.72C103.032 17.6 103.432 16.656 103.816 15.888C103.976 15.568 104.184 15.376 104.44 15.312C104.728 15.216 104.984 15.2 105.208 15.264C105.464 15.328 105.672 15.44 105.832 15.6C105.992 15.76 106.024 15.936 105.928 16.128C105.384 17.344 104.904 18.464 104.488 19.488C104.072 20.512 103.688 21.52 103.336 22.512C103.016 23.504 102.712 24.496 102.424 25.488C102.168 26.48 101.912 27.568 101.656 28.752C101.592 28.976 101.48 29.152 101.32 29.28C101.16 29.376 101 29.424 100.84 29.424C100.68 29.392 100.536 29.312 100.408 29.184C100.28 29.056 100.216 28.848 100.216 28.56ZM93.5438 34.752C93.2238 34.88 92.9038 34.928 92.5838 34.896C92.2638 34.864 92.0078 34.72 91.8158 34.464C91.6878 34.24 91.6558 34 91.7198 33.744C91.7838 33.456 91.9598 33.28 92.2478 33.216L94.8398 32.496C97.0478 31.888 99.3838 31.296 101.848 30.72C104.312 30.144 106.888 29.872 109.576 29.904C109.864 29.904 110.072 29.968 110.2 30.096C110.328 30.224 110.392 30.368 110.392 30.528C110.392 30.688 110.312 30.832 110.152 30.96C110.024 31.088 109.848 31.168 109.624 31.2C106.04 31.552 102.968 32.064 100.408 32.736C97.8478 33.408 95.5598 34.08 93.5438 34.752ZM113.939 18.864C113.587 18.992 113.283 19.088 113.027 19.152C112.771 19.184 112.563 19.056 112.403 18.768C112.243 18.544 112.195 18.288 112.259 18C112.323 17.712 112.499 17.504 112.787 17.376C113.619 17.024 114.627 16.704 115.811 16.416C117.027 16.096 118.323 15.824 119.699 15.6C121.075 15.344 122.483 15.12 123.923 14.928C125.363 14.736 126.707 14.576 127.955 14.448C129.235 14.32 130.371 14.224 131.363 14.16C132.387 14.096 133.155 14.064 133.667 14.064C134.211 14.064 134.499 14.24 134.531 14.592C134.595 14.912 134.403 15.104 133.955 15.168C132.771 15.264 131.363 15.408 129.731 15.6C128.099 15.76 126.371 15.984 124.547 16.272C122.755 16.56 120.931 16.928 119.075 17.376C117.251 17.792 115.539 18.288 113.939 18.864ZM129.539 9.16799C128.803 9.19999 127.971 9.27999 127.043 9.40799C126.147 9.53599 125.235 9.69599 124.307 9.88799C123.379 10.048 122.483 10.224 121.619 10.416C120.787 10.608 120.083 10.784 119.507 10.944C119.059 11.072 118.579 11.136 118.067 11.136C117.555 11.136 117.091 11.056 116.675 10.896C116.259 10.704 115.923 10.416 115.667 10.032C115.443 9.64799 115.379 9.11998 115.475 8.44798C115.539 7.83998 115.699 7.21598 115.955 6.57598C116.211 5.90398 116.531 5.24798 116.915 4.60798C117.331 3.96799 117.779 3.37599 118.259 2.83198C118.771 2.25598 119.299 1.74398 119.843 1.29598C120.451 0.847984 120.963 0.719984 121.379 0.911983C121.603 1.03998 121.651 1.21598 121.523 1.43999C121.395 1.66398 121.251 1.87198 121.091 2.06399C120.227 2.95999 119.475 3.87199 118.835 4.79998C118.195 5.72798 117.747 6.79998 117.491 8.01599C117.363 8.52799 117.443 8.89598 117.731 9.11998C118.019 9.34398 118.483 9.37599 119.123 9.21599C119.539 9.11998 120.147 8.99198 120.947 8.83198C121.779 8.67198 122.675 8.52798 123.635 8.39998C124.627 8.23998 125.635 8.12799 126.659 8.06399C127.683 7.96799 128.643 7.93598 129.539 7.96798C130.307 7.99999 130.659 8.20799 130.595 8.59198C130.531 8.94398 130.179 9.13598 129.539 9.16799ZM119.747 38.784C118.467 38.624 117.795 38.208 117.731 37.536C117.667 36.896 118.035 36.224 118.835 35.52C119.315 35.104 119.939 34.656 120.707 34.176C121.507 33.696 122.323 33.216 123.155 32.736C124.019 32.256 124.835 31.824 125.603 31.44C126.371 31.024 126.979 30.688 127.427 30.432C127.619 30.336 127.779 30.224 127.907 30.096C128.067 29.936 128.163 29.792 128.195 29.664C128.227 29.536 128.179 29.424 128.051 29.328C127.923 29.232 127.699 29.168 127.379 29.136C126.419 29.072 125.459 29.104 124.499 29.232C123.571 29.36 122.643 29.488 121.715 29.616C121.075 29.68 120.387 29.792 119.651 29.952C118.947 30.112 118.211 30.272 117.443 30.432C117.283 30.464 117.155 30.416 117.059 30.288C116.963 30.16 116.899 30.016 116.867 29.856C116.867 29.664 116.883 29.488 116.915 29.328C116.979 29.136 117.075 29.008 117.203 28.944C117.331 28.912 117.507 28.864 117.731 28.8C117.987 28.704 118.243 28.608 118.499 28.512C118.755 28.416 119.011 28.32 119.267 28.224C119.523 28.128 119.715 28.048 119.843 27.984C120.323 27.728 120.867 27.472 121.475 27.216C122.083 26.96 122.691 26.688 123.299 26.4C123.907 26.08 124.467 25.744 124.979 25.392C125.523 25.008 125.971 24.576 126.323 24.096C126.643 23.648 126.771 23.296 126.707 23.04C126.675 22.752 126.419 22.592 125.939 22.56C124.531 22.496 123.011 22.64 121.379 22.992C119.747 23.344 118.227 23.888 116.819 24.624C116.243 24.944 115.811 24.896 115.523 24.48C115.171 24.128 115.251 23.792 115.763 23.472C116.339 23.088 117.075 22.736 117.971 22.416C118.867 22.096 119.827 21.84 120.851 21.648C121.875 21.424 122.899 21.28 123.923 21.216C124.947 21.12 125.859 21.12 126.659 21.216C127.779 21.344 128.467 21.76 128.723 22.464C128.979 23.168 128.787 23.904 128.147 24.672C127.795 25.12 127.427 25.504 127.043 25.824C126.659 26.112 126.227 26.384 125.747 26.64C125.299 26.896 124.803 27.152 124.259 27.408C123.715 27.632 123.107 27.888 122.435 28.176C123.939 27.952 125.187 27.824 126.179 27.792C127.203 27.728 128.195 27.808 129.155 28.032C130.019 28.224 130.515 28.624 130.643 29.232C130.771 29.84 130.243 30.496 129.059 31.2C128.547 31.52 127.859 31.92 126.995 32.4C126.163 32.848 125.315 33.328 124.451 33.84C123.587 34.352 122.787 34.832 122.051 35.28C121.347 35.728 120.851 36.08 120.563 36.336C120.467 36.464 120.387 36.624 120.323 36.816C120.291 37.04 120.499 37.168 120.947 37.2C121.907 37.264 122.835 37.28 123.731 37.248C124.627 37.248 125.539 37.184 126.467 37.056C127.427 36.96 128.419 36.816 129.443 36.624C130.499 36.432 131.635 36.16 132.851 35.808C133.043 35.744 133.203 35.744 133.331 35.808C133.459 35.872 133.539 35.968 133.571 36.096C133.635 36.224 133.651 36.352 133.619 36.48C133.587 36.608 133.507 36.704 133.379 36.768C132.259 37.312 131.059 37.744 129.779 38.064C128.531 38.384 127.299 38.608 126.083 38.736C124.867 38.864 123.699 38.928 122.579 38.928C121.491 38.928 120.547 38.88 119.747 38.784ZM146.235 39.024C145.851 39.088 145.387 39.12 144.843 39.12C144.331 39.152 143.819 39.088 143.307 38.928C142.827 38.8 142.427 38.56 142.107 38.208C141.787 37.888 141.659 37.44 141.723 36.864C141.787 36.448 141.963 36.048 142.251 35.664C142.571 35.28 142.955 34.912 143.403 34.56C144.523 33.696 145.435 33.04 146.139 32.592C146.875 32.112 147.435 31.696 147.819 31.344C148.107 31.088 148.459 30.768 148.875 30.384C149.323 30 149.691 29.632 149.979 29.28C150.267 28.928 150.411 28.64 150.411 28.416C150.443 28.16 150.171 28.032 149.595 28.032C148.475 28.032 147.451 28.176 146.523 28.464C145.627 28.752 144.507 29.168 143.163 29.712C142.907 29.808 142.683 29.824 142.491 29.76C142.299 29.696 142.155 29.6 142.059 29.472C141.963 29.312 141.915 29.152 141.915 28.992C141.947 28.8 142.059 28.64 142.251 28.512C142.539 28.32 142.875 28.112 143.259 27.888C143.643 27.632 144.219 27.28 144.987 26.832C145.883 26.288 146.779 25.712 147.675 25.104C148.571 24.496 149.307 23.856 149.883 23.184C150.907 21.968 150.747 21.36 149.403 21.36C148.155 21.36 146.859 21.616 145.515 22.128C144.203 22.64 142.875 23.296 141.531 24.096C141.179 24.32 140.811 24.512 140.427 24.672C140.043 24.832 139.755 24.768 139.563 24.48C139.307 24.128 139.323 23.744 139.611 23.328C139.931 22.912 140.539 22.496 141.435 22.08C142.811 21.472 144.171 20.944 145.515 20.496C146.891 20.048 148.379 19.824 149.979 19.824C150.811 19.824 151.483 20 151.995 20.352C152.539 20.672 152.715 21.328 152.523 22.32C152.459 22.704 152.235 23.104 151.851 23.52C151.499 23.936 151.051 24.352 150.507 24.768C149.995 25.184 149.451 25.584 148.875 25.968C148.299 26.352 147.755 26.688 147.243 26.976C147.787 26.816 148.347 26.736 148.923 26.736C149.499 26.704 150.011 26.688 150.459 26.688C151.163 26.688 151.723 26.784 152.139 26.976C152.587 27.136 152.811 27.44 152.811 27.888C152.811 28.496 152.603 29.04 152.187 29.52C151.771 29.968 151.291 30.448 150.747 30.96C149.915 31.696 149.051 32.384 148.155 33.024C147.259 33.664 146.443 34.256 145.707 34.8C144.971 35.344 144.507 35.76 144.315 36.048C144.155 36.336 144.107 36.592 144.171 36.816C144.235 37.008 144.379 37.152 144.603 37.248C144.859 37.344 145.403 37.344 146.235 37.248C148.315 36.992 150.379 36.624 152.427 36.144C154.475 35.664 156.443 35.152 158.331 34.608C158.843 34.448 159.179 34.48 159.339 34.704C159.435 34.832 159.435 34.976 159.339 35.136C159.275 35.296 159.035 35.456 158.619 35.616C157.787 35.968 156.875 36.304 155.883 36.624C154.891 36.944 153.851 37.248 152.763 37.536C151.675 37.824 150.571 38.08 149.451 38.304C148.363 38.56 147.291 38.8 146.235 39.024ZM136.971 18.528C136.715 18.368 136.603 18.144 136.635 17.856C136.699 17.536 137.051 17.216 137.691 16.896C138.875 16.32 140.299 15.76 141.963 15.216C143.659 14.64 145.419 14.144 147.243 13.728C149.067 13.28 150.907 12.928 152.763 12.672C154.619 12.384 156.315 12.24 157.851 12.24C158.491 12.24 158.811 12.416 158.811 12.768C158.811 13.088 158.523 13.28 157.947 13.344C156.315 13.504 154.651 13.728 152.955 14.016C151.259 14.304 149.595 14.656 147.963 15.072C146.331 15.488 144.763 15.952 143.259 16.464C141.787 16.944 140.475 17.472 139.323 18.048C138.843 18.304 138.411 18.512 138.027 18.672C137.643 18.8 137.291 18.752 136.971 18.528ZM150.555 7.05598C150.267 7.43999 149.883 7.87199 149.403 8.35198C148.923 8.83198 148.395 9.24798 147.819 9.59999C147.275 9.95199 146.699 10.192 146.091 10.32C145.483 10.448 144.907 10.368 144.363 10.08C143.947 9.85598 143.691 9.51998 143.595 9.07198C143.499 8.59198 143.515 8.06398 143.643 7.48798C143.771 6.87998 143.963 6.25599 144.219 5.61599C144.507 4.94398 144.827 4.31998 145.179 3.74398C145.627 2.91199 146.203 2.15999 146.907 1.48798C147.643 0.783984 148.379 0.399984 149.115 0.335985C150.043 0.271984 150.763 0.463984 151.275 0.911983C151.787 1.35998 152.043 2.03198 152.043 2.92799C152.043 3.59999 151.883 4.31998 151.563 5.08798C151.275 5.85598 150.939 6.51198 150.555 7.05598ZM149.547 1.87199C149.035 1.93598 148.523 2.20798 148.011 2.68798C147.531 3.16798 147.099 3.77599 146.715 4.51199C146.555 4.79999 146.379 5.13599 146.187 5.51998C145.995 5.90399 145.835 6.28798 145.707 6.67198C145.579 7.05598 145.483 7.40798 145.419 7.72798C145.387 8.04798 145.435 8.30398 145.563 8.49599C145.691 8.75198 145.899 8.84798 146.187 8.78399C146.507 8.68798 146.843 8.51198 147.195 8.25599C147.579 7.96799 147.947 7.64799 148.299 7.29598C148.651 6.94398 148.939 6.59198 149.163 6.23998C149.515 5.69598 149.819 5.15199 150.075 4.60798C150.331 4.06398 150.475 3.51998 150.507 2.97599C150.539 2.62398 150.491 2.33598 150.363 2.11199C150.235 1.88798 149.963 1.80798 149.547 1.87199ZM186.658 12.912C187.01 12.112 187.154 11.488 187.09 11.04C187.026 10.592 186.578 10.4 185.746 10.464C184.274 10.528 182.93 10.912 181.714 11.616C180.53 12.32 179.474 13.28 178.546 14.496C178.418 14.656 178.21 14.784 177.922 14.88C177.666 14.976 177.442 14.944 177.25 14.784C176.898 14.464 176.866 14.032 177.154 13.488C177.378 13.04 177.714 12.56 178.162 12.048C178.642 11.536 179.234 11.056 179.938 10.608C180.642 10.16 181.458 9.77598 182.386 9.45599C183.314 9.13599 184.37 8.94398 185.554 8.87998C187.25 8.78399 188.322 9.16799 188.77 10.032C189.218 10.864 189.138 11.936 188.53 13.248C187.954 14.496 187.298 15.696 186.562 16.848C185.826 18 185.042 19.136 184.21 20.256C185.234 21.344 186.338 22.368 187.522 23.328C188.706 24.288 189.858 25.04 190.978 25.584C191.234 25.744 191.282 25.968 191.122 26.256C190.994 26.544 190.802 26.656 190.546 26.592C189.106 26.24 187.778 25.664 186.562 24.864C185.378 24.032 184.162 23.056 182.914 21.936C182.05 23.152 181.202 24.384 180.37 25.632C179.57 26.88 178.85 28.208 178.21 29.616C178.114 29.776 177.97 29.904 177.778 30C177.618 30.096 177.458 30.144 177.298 30.144C177.138 30.112 177.01 30.032 176.914 29.904C176.85 29.744 176.866 29.52 176.962 29.232C177.538 27.504 178.242 25.936 179.074 24.528C179.938 23.12 180.818 21.792 181.714 20.544C182.642 19.264 183.538 18.016 184.402 16.8C185.266 15.552 186.018 14.256 186.658 12.912ZM196.018 35.616C195.89 34.688 195.81 33.76 195.778 32.832C195.746 31.904 195.73 30.976 195.73 30.048C195.73 28.128 195.826 26.224 196.018 24.336C196.21 22.416 196.418 20.56 196.642 18.768C196.802 17.488 196.93 16.304 197.026 15.216C197.154 14.096 197.266 12.976 197.362 11.856C197.458 10.736 197.522 9.56798 197.554 8.35198C197.618 7.13599 197.682 5.75998 197.746 4.22398C197.746 4.06398 197.81 3.91998 197.938 3.79198C198.098 3.66399 198.306 3.56799 198.562 3.50398C198.818 3.43999 199.074 3.45599 199.33 3.55198C199.586 3.61598 199.714 3.77599 199.714 4.03199C199.682 5.47198 199.618 6.81598 199.522 8.06399C199.458 9.27999 199.362 10.496 199.234 11.712C199.138 12.896 199.01 14.112 198.85 15.36C198.722 16.576 198.562 17.888 198.37 19.296C198.082 21.408 197.81 23.872 197.554 26.688C197.298 29.472 197.202 32.4 197.266 35.472C197.266 35.664 197.202 35.824 197.074 35.952C196.978 36.08 196.85 36.16 196.69 36.192C196.562 36.224 196.418 36.192 196.258 36.096C196.13 36.032 196.05 35.872 196.018 35.616ZM226.777 35.616C226.777 35.776 226.713 35.904 226.585 36C226.489 36.128 226.361 36.192 226.201 36.192C226.073 36.224 225.945 36.192 225.817 36.096C225.689 36.032 225.609 35.872 225.577 35.616C225.385 33.664 225.369 31.456 225.529 28.992C225.689 26.496 225.897 23.856 226.153 21.072C226.441 18.256 226.729 15.36 227.017 12.384C227.305 9.40798 227.497 6.43198 227.593 3.45599C227.593 3.10399 227.721 2.86399 227.977 2.73599C228.233 2.60799 228.505 2.59198 228.793 2.68798C229.113 2.78398 229.305 2.95998 229.369 3.21599C229.465 3.47199 229.497 3.79199 229.465 4.17598C229.305 6.54398 229.081 9.07198 228.793 11.76C228.505 14.448 228.217 17.168 227.929 19.92C227.641 22.672 227.369 25.392 227.113 28.08C226.889 30.768 226.777 33.28 226.777 35.616ZM214.057 12.576C214.121 11.84 213.961 11.232 213.577 10.752C213.193 10.24 212.585 10.08 211.753 10.272C210.697 10.528 209.721 10.896 208.825 11.376C207.961 11.824 207.209 12.288 206.569 12.768C206.217 13.024 205.913 13.184 205.657 13.248C205.433 13.28 205.177 13.232 204.889 13.104C204.633 13.008 204.521 12.848 204.553 12.624C204.585 12.4 204.713 12.176 204.937 11.952C205.641 11.312 206.601 10.688 207.817 10.08C209.033 9.47199 210.265 9.05599 211.513 8.83198C212.953 8.57598 214.089 8.78398 214.921 9.45599C215.753 10.096 216.041 11.216 215.785 12.816C215.561 14.16 215.177 15.584 214.633 17.088C214.089 18.56 213.449 20.048 212.713 21.552C212.009 23.024 211.225 24.448 210.361 25.824C209.497 27.168 208.649 28.384 207.817 29.472C207.561 29.792 207.273 29.888 206.953 29.76C206.633 29.6 206.569 29.344 206.761 28.992C207.369 27.936 208.057 26.752 208.825 25.44C209.625 24.128 210.377 22.752 211.081 21.312C211.817 19.872 212.457 18.416 213.001 16.944C213.545 15.44 213.897 13.984 214.057 12.576ZM210.649 16.272C210.873 16.24 211.049 16.256 211.177 16.32C211.305 16.384 211.385 16.48 211.417 16.608C211.449 16.736 211.401 16.88 211.273 17.04C211.177 17.168 210.985 17.28 210.697 17.376C209.577 17.728 208.377 18.112 207.097 18.528C205.817 18.944 204.617 19.232 203.497 19.392C203.241 19.424 203.033 19.376 202.873 19.248C202.713 19.12 202.617 18.976 202.585 18.816C202.553 18.624 202.585 18.448 202.681 18.288C202.809 18.096 203.017 17.984 203.305 17.952C204.521 17.792 205.705 17.552 206.857 17.232C208.041 16.88 209.305 16.56 210.649 16.272ZM224.281 12.72C224.729 12.688 224.969 12.832 225.001 13.152C225.065 13.472 224.809 13.68 224.233 13.776C223.433 13.904 222.713 14.064 222.073 14.256C221.465 14.416 220.889 14.608 220.345 14.832C219.833 15.024 219.337 15.248 218.857 15.504C218.409 15.728 217.945 15.968 217.465 16.224C217.241 16.352 217.017 16.384 216.793 16.32C216.601 16.256 216.457 16.16 216.361 16.032C216.265 15.872 216.233 15.696 216.265 15.504C216.297 15.312 216.441 15.152 216.697 15.024C217.785 14.416 218.921 13.904 220.105 13.488C221.289 13.072 222.681 12.816 224.281 12.72ZM224.137 18.576C224.361 18.576 224.537 18.624 224.665 18.72C224.793 18.816 224.857 18.928 224.857 19.056C224.889 19.152 224.841 19.264 224.713 19.392C224.585 19.52 224.377 19.6 224.089 19.632C222.489 19.856 221.113 20.208 219.961 20.688C218.841 21.168 217.801 21.68 216.841 22.224C216.617 22.352 216.393 22.4 216.169 22.368C215.977 22.304 215.833 22.208 215.737 22.08C215.641 21.92 215.609 21.744 215.641 21.552C215.673 21.36 215.817 21.184 216.073 21.024C217.161 20.32 218.377 19.76 219.721 19.344C221.065 18.928 222.537 18.672 224.137 18.576ZM237.17 16.224C237.49 15.52 238.034 14.752 238.802 13.92C239.602 13.056 240.45 12.176 241.346 11.28C242.242 10.352 243.106 9.40798 243.938 8.44798C244.802 7.48798 245.458 6.54399 245.906 5.61599C246.162 5.07199 246.306 4.57598 246.338 4.12799C246.402 3.67999 246.098 3.48798 245.426 3.55198C244.754 3.61598 244.066 3.79199 243.362 4.07999C242.69 4.36799 242.034 4.71999 241.394 5.13599C240.786 5.55198 240.226 6.03198 239.714 6.57598C239.234 7.08798 238.866 7.61598 238.61 8.15998C238.482 8.44798 238.322 8.59198 238.13 8.59198C237.97 8.59198 237.826 8.52798 237.698 8.39998C237.57 8.23998 237.458 8.04799 237.362 7.82399C237.298 7.59999 237.298 7.39198 237.362 7.19999C237.522 6.62399 237.89 6.04799 238.466 5.47198C239.074 4.89598 239.762 4.36798 240.53 3.88799C241.298 3.40799 242.098 3.00799 242.93 2.68798C243.794 2.36798 244.578 2.17598 245.282 2.11199C246.818 1.98398 247.762 2.33599 248.114 3.16799C248.466 3.99998 248.226 5.07198 247.394 6.38398C247.106 6.89599 246.802 7.35999 246.482 7.77598C246.194 8.19198 245.89 8.60798 245.57 9.02398C246.466 9.56799 247.41 9.93599 248.402 10.128C249.426 10.32 250.53 10.464 251.714 10.56C251.97 10.624 252.082 10.816 252.05 11.136C252.018 11.456 251.858 11.632 251.57 11.664C250.546 11.728 249.362 11.664 248.018 11.472C246.674 11.28 245.474 10.912 244.418 10.368C243.394 11.488 242.354 12.528 241.298 13.488C240.274 14.448 239.298 15.584 238.37 16.896C238.178 17.152 237.986 17.312 237.794 17.376C237.602 17.408 237.442 17.392 237.314 17.328C237.186 17.232 237.09 17.088 237.026 16.896C236.994 16.704 237.042 16.48 237.17 16.224ZM245.426 28.848C245.362 29.392 245.138 29.648 244.754 29.616C244.402 29.552 244.21 29.328 244.178 28.944C244.146 28.016 244.162 27.152 244.226 26.352C244.29 25.552 244.386 24.784 244.514 24.048C244.642 23.28 244.786 22.544 244.946 21.84C245.138 21.136 245.33 20.416 245.522 19.68C243.41 20.128 241.282 20.656 239.138 21.264C237.026 21.84 234.946 22.416 232.898 22.992C232.642 23.056 232.402 23.04 232.178 22.944C231.986 22.816 231.858 22.56 231.794 22.176C231.73 21.76 232.066 21.44 232.802 21.216C234.082 20.896 235.602 20.496 237.362 20.016C239.122 19.536 240.994 19.088 242.978 18.672C244.962 18.224 246.978 17.872 249.026 17.616C251.074 17.328 253.026 17.216 254.882 17.28C255.394 17.312 255.634 17.504 255.602 17.856C255.602 18.208 255.298 18.4 254.69 18.432C253.538 18.496 252.354 18.608 251.138 18.768C249.954 18.896 248.754 19.072 247.538 19.296C247.09 20.832 246.658 22.368 246.242 23.904C245.826 25.44 245.554 27.088 245.426 28.848ZM238.754 33.36C238.786 32.432 238.914 31.424 239.138 30.336C239.362 29.248 239.778 28.224 240.386 27.264C240.61 26.912 240.914 26.8 241.298 26.928C241.682 27.024 241.794 27.296 241.634 27.744C241.25 28.768 240.978 29.664 240.818 30.432C240.69 31.2 240.61 32.128 240.578 33.216C240.546 33.76 240.674 34.224 240.962 34.608C241.282 34.96 241.858 35.12 242.69 35.088C243.842 35.024 244.994 34.864 246.146 34.608C247.33 34.32 248.642 34.144 250.082 34.08C250.594 34.048 250.866 34.208 250.898 34.56C250.93 34.912 250.706 35.12 250.226 35.184C248.786 35.44 247.474 35.744 246.29 36.096C245.106 36.448 243.858 36.656 242.546 36.72C241.202 36.784 240.226 36.512 239.618 35.904C239.01 35.328 238.722 34.48 238.754 33.36ZM290.969 34.848C291.001 32.352 291.177 29.92 291.497 27.552C291.817 25.184 292.153 22.832 292.505 20.496C292.889 18.128 293.257 15.76 293.609 13.392C293.961 10.992 294.185 8.52799 294.281 5.99998C294.281 5.74399 294.345 5.50399 294.473 5.27998C294.633 5.02398 294.905 4.91198 295.289 4.94399C295.897 4.97599 296.185 5.34399 296.153 6.04799C296.057 7.87199 295.897 9.61599 295.673 11.28C295.481 12.912 295.257 14.528 295.001 16.128C295.833 15.744 296.809 15.392 297.929 15.072C299.049 14.72 300.153 14.544 301.241 14.544C301.785 14.544 302.041 14.704 302.009 15.024C302.009 15.344 301.833 15.536 301.481 15.6C299.977 15.888 298.697 16.256 297.641 16.704C296.585 17.152 295.593 17.664 294.665 18.24C294.217 20.928 293.753 23.6 293.273 26.256C292.825 28.912 292.521 31.744 292.361 34.752C292.329 35.072 292.249 35.328 292.121 35.52C292.025 35.744 291.849 35.856 291.593 35.856C291.177 35.856 290.969 35.52 290.969 34.848ZM280.889 11.376C280.441 11.408 279.961 11.456 279.449 11.52C278.937 11.552 278.393 11.616 277.817 11.712C277.273 12.48 276.777 13.312 276.329 14.208C275.913 15.072 275.545 15.936 275.225 16.8C274.905 17.664 274.649 18.512 274.457 19.344C274.265 20.144 274.153 20.864 274.121 21.504C274.057 22.08 274.137 22.544 274.361 22.896C274.617 23.248 275.065 23.392 275.705 23.328C276.249 23.264 276.825 23.168 277.433 23.04C278.073 22.88 278.729 22.624 279.401 22.272C279.721 22.112 279.977 22.16 280.169 22.416C280.361 22.64 280.313 22.88 280.025 23.136C279.417 23.68 278.745 24.096 278.009 24.384C277.273 24.64 276.553 24.8 275.849 24.864C274.665 24.992 273.753 24.784 273.113 24.24C272.505 23.696 272.233 22.864 272.297 21.744C272.329 20.976 272.441 20.16 272.633 19.296C272.857 18.432 273.129 17.568 273.449 16.704C273.769 15.84 274.121 15.024 274.505 14.256C274.921 13.456 275.321 12.752 275.705 12.144C275.289 12.24 274.889 12.352 274.505 12.48C274.153 12.576 273.801 12.688 273.449 12.816C273.001 12.976 272.697 12.912 272.537 12.624C272.377 12.336 272.441 12.064 272.729 11.808C273.145 11.488 273.689 11.216 274.361 10.992C275.033 10.736 275.737 10.528 276.473 10.368C277.241 10.208 277.993 10.096 278.729 10.032C279.465 9.93599 280.105 9.88799 280.649 9.88799C280.905 9.88799 281.081 9.95199 281.177 10.08C281.273 10.176 281.337 10.304 281.369 10.464C281.433 10.72 281.417 10.944 281.321 11.136C281.225 11.296 281.081 11.376 280.889 11.376ZM289.289 11.712C288.777 11.808 288.249 11.92 287.705 12.048C287.161 12.176 286.617 12.32 286.073 12.48C285.049 13.984 284.281 15.408 283.769 16.752C283.289 18.096 283.001 19.312 282.905 20.4C282.841 20.976 282.953 21.456 283.241 21.84C283.561 22.192 284.041 22.336 284.681 22.272C285.225 22.208 285.865 22.08 286.601 21.888C287.369 21.696 288.089 21.424 288.761 21.072C289.081 20.912 289.337 20.944 289.529 21.168C289.721 21.392 289.673 21.632 289.385 21.888C288.777 22.432 288.025 22.88 287.129 23.232C286.265 23.552 285.481 23.744 284.777 23.808C283.593 23.936 282.681 23.728 282.041 23.184C281.401 22.608 281.113 21.76 281.177 20.64C281.241 19.36 281.513 18.096 281.993 16.848C282.505 15.568 283.113 14.352 283.817 13.2C283.465 13.328 283.129 13.456 282.809 13.584C282.521 13.712 282.249 13.84 281.993 13.968C281.769 14.064 281.593 14.08 281.465 14.016C281.337 13.952 281.241 13.856 281.177 13.728C281.145 13.568 281.145 13.408 281.177 13.248C281.209 13.088 281.305 12.96 281.465 12.864C281.881 12.576 282.393 12.304 283.001 12.048C283.609 11.76 284.249 11.504 284.921 11.28C285.625 11.056 286.297 10.864 286.937 10.704C287.609 10.512 288.201 10.368 288.713 10.272C289.225 10.176 289.545 10.288 289.673 10.608C289.769 10.864 289.769 11.104 289.673 11.328C289.609 11.52 289.481 11.648 289.289 11.712ZM308.79 37.248C308.438 37.824 308.118 38.016 307.83 37.824C307.542 37.632 307.478 37.312 307.638 36.864C308.022 35.776 308.582 34.576 309.318 33.264C310.054 31.92 310.854 30.624 311.718 29.376C312.582 28.096 313.446 26.928 314.31 25.872C315.174 24.816 315.926 24.032 316.566 23.52C316.758 23.392 316.95 23.36 317.142 23.424C317.366 23.456 317.542 23.552 317.67 23.712C317.83 23.84 317.926 24 317.958 24.192C318.022 24.384 317.99 24.544 317.862 24.672C317.062 25.504 316.326 26.336 315.654 27.168C316.006 27.808 316.406 28.544 316.854 29.376C317.302 30.208 317.734 31.104 318.15 32.064C318.598 33.024 318.998 34.016 319.35 35.04C319.734 36.032 320.038 36.992 320.262 37.92C320.294 38.08 320.262 38.208 320.166 38.304C320.102 38.432 319.99 38.512 319.83 38.544C319.702 38.608 319.574 38.608 319.446 38.544C319.318 38.512 319.222 38.416 319.158 38.256C318.614 36.976 317.926 35.488 317.094 33.792C316.262 32.064 315.35 30.416 314.358 28.848C313.27 30.288 312.294 31.68 311.43 33.024C310.598 34.336 309.718 35.744 308.79 37.248ZM304.758 7.63199C304.534 7.72798 304.342 7.74398 304.182 7.67999C304.054 7.61599 303.958 7.51999 303.894 7.39199C303.862 7.23199 303.862 7.07199 303.894 6.91199C303.926 6.75198 304.022 6.60798 304.182 6.47999C304.662 6.12799 305.286 5.77598 306.054 5.42399C306.854 5.07198 307.686 4.76798 308.55 4.51199C309.414 4.22399 310.294 3.98398 311.19 3.79198C312.086 3.59998 312.902 3.47198 313.638 3.40799C314.054 3.37598 314.326 3.43998 314.454 3.59999C314.614 3.72798 314.678 3.88798 314.646 4.07999C314.646 4.27199 314.55 4.46398 314.358 4.65598C314.198 4.81598 314.006 4.91198 313.782 4.94399C313.302 5.00799 312.79 5.08799 312.246 5.18399C311.702 5.27998 311.126 5.40798 310.518 5.56798C309.846 6.43198 309.158 7.42398 308.454 8.54399C307.75 9.66398 307.286 10.752 307.062 11.808C306.902 12.64 306.918 13.2 307.11 13.488C307.302 13.744 307.686 13.84 308.262 13.776C309.19 13.712 310.07 13.52 310.902 13.2C311.734 12.848 312.598 12.496 313.494 12.144C313.91 11.984 314.214 12.016 314.406 12.24C314.598 12.464 314.486 12.72 314.07 13.008C312.15 14.352 310.118 15.168 307.974 15.456C306.79 15.616 305.958 15.376 305.478 14.736C305.03 14.064 304.918 13.168 305.142 12.048C305.334 11.024 305.638 10.048 306.054 9.11998C306.502 8.19198 307.142 7.26398 307.974 6.33599C307.398 6.55998 306.822 6.78398 306.246 7.00799C305.702 7.23198 305.206 7.43998 304.758 7.63199ZM316.23 7.05598C316.006 7.11999 315.83 7.11999 315.702 7.05598C315.574 6.95999 315.478 6.84799 315.414 6.71999C315.382 6.55999 315.382 6.41599 315.414 6.28799C315.478 6.12799 315.59 5.99999 315.75 5.90399C316.262 5.61598 316.886 5.35999 317.622 5.13599C318.358 4.87999 319.11 4.67199 319.878 4.51199C320.646 4.31998 321.414 4.17598 322.182 4.07999C322.95 3.98398 323.638 3.91998 324.246 3.88799C324.534 3.88799 324.742 3.96799 324.87 4.12799C324.998 4.25599 325.062 4.41599 325.062 4.60798C325.062 4.79998 324.998 4.97598 324.87 5.13599C324.742 5.29599 324.566 5.37599 324.342 5.37599C323.894 5.40799 323.414 5.45599 322.902 5.51998C322.422 5.58399 321.942 5.64799 321.462 5.71198C321.43 5.77599 321.35 5.87199 321.222 5.99998C320.678 6.47999 320.102 7.07199 319.494 7.77598C318.918 8.47998 318.454 9.27998 318.102 10.176C317.846 10.752 317.83 11.168 318.054 11.424C318.278 11.648 318.63 11.744 319.11 11.712C319.654 11.68 320.278 11.584 320.982 11.424C321.718 11.264 322.598 11.024 323.622 10.704C324.07 10.576 324.342 10.672 324.438 10.992C324.566 11.28 324.406 11.536 323.958 11.76C323.126 12.176 322.294 12.528 321.462 12.816C320.662 13.104 319.702 13.28 318.582 13.344C317.302 13.408 316.502 13.088 316.182 12.384C315.862 11.68 315.926 10.816 316.374 9.79199C316.63 9.21599 316.966 8.62399 317.382 8.01599C317.798 7.40798 318.278 6.83198 318.822 6.28799C318.374 6.41599 317.926 6.54399 317.478 6.67198C317.062 6.79998 316.646 6.92798 316.23 7.05598ZM325.206 19.536C321.462 19.536 317.83 19.904 314.31 20.64C310.822 21.344 307.622 22.208 304.71 23.232C304.102 23.456 303.718 23.296 303.558 22.752C303.494 22.528 303.478 22.32 303.51 22.128C303.574 21.904 303.766 21.728 304.086 21.6C305.494 21.088 307.094 20.608 308.886 20.16C310.71 19.712 312.566 19.328 314.454 19.008C316.374 18.688 318.262 18.48 320.118 18.384C322.006 18.256 323.734 18.256 325.302 18.384C325.942 18.448 326.246 18.64 326.214 18.96C326.182 19.216 326.086 19.376 325.926 19.44C325.798 19.504 325.558 19.536 325.206 19.536ZM337.143 34.464C337.175 34.208 337.271 33.84 337.431 33.36C337.591 32.88 337.783 32.384 338.007 31.872C338.231 31.328 338.487 30.816 338.775 30.336C339.063 29.824 339.383 29.392 339.735 29.04C339.895 28.88 340.087 28.752 340.311 28.656C340.535 28.56 340.727 28.528 340.887 28.56C341.047 28.592 341.127 28.704 341.127 28.896C341.127 29.088 341.079 29.28 340.983 29.472C340.439 30.464 340.023 31.296 339.735 31.968C339.447 32.608 339.239 33.216 339.111 33.792C339.079 33.92 339.063 34.08 339.063 34.272C339.063 34.432 339.095 34.592 339.159 34.752C339.223 34.912 339.335 35.04 339.495 35.136C339.655 35.232 339.911 35.264 340.263 35.232C341.575 35.232 342.887 35.168 344.199 35.04C345.543 34.88 346.951 34.688 348.423 34.464C348.999 34.368 349.319 34.432 349.383 34.656C349.415 34.816 349.335 35.008 349.143 35.232C348.983 35.456 348.759 35.6 348.471 35.664C348.023 35.76 347.463 35.856 346.791 35.952C346.119 36.08 345.399 36.208 344.631 36.336C343.863 36.464 343.095 36.576 342.327 36.672C341.591 36.768 340.919 36.832 340.311 36.864C339.287 36.928 338.455 36.8 337.815 36.48C337.207 36.192 336.983 35.52 337.143 34.464ZM330.951 29.568C330.503 29.504 330.167 29.28 329.943 28.896C329.751 28.48 329.639 27.984 329.607 27.408C329.607 26.8 329.687 26.128 329.847 25.392C330.007 24.656 330.247 23.904 330.567 23.136C331.047 21.984 331.527 21.04 332.007 20.304C332.487 19.536 333.015 18.88 333.591 18.336C333.527 17.984 333.607 17.728 333.831 17.568C334.055 17.408 334.327 17.392 334.647 17.52C335.671 17.872 336.391 18.432 336.807 19.2C337.223 19.968 337.399 20.768 337.335 21.6C337.335 21.856 337.287 22.192 337.191 22.608C337.095 22.992 336.967 23.424 336.807 23.904C336.679 24.352 336.503 24.8 336.279 25.248C336.087 25.696 335.847 26.112 335.559 26.496C334.823 27.52 334.071 28.336 333.303 28.944C332.567 29.52 331.783 29.728 330.951 29.568ZM343.767 27.6C343.991 25.136 344.295 22.688 344.679 20.256C345.063 17.792 345.463 15.472 345.879 13.296C346.327 11.12 346.791 9.13599 347.271 7.34398C347.751 5.51998 348.199 3.99998 348.615 2.78399C348.711 2.52798 348.839 2.36798 348.999 2.30399C349.191 2.20798 349.367 2.15998 349.527 2.15998C349.847 2.15998 350.071 2.25598 350.199 2.44798C350.359 2.60798 350.359 2.99198 350.199 3.59999C349.431 6.41599 348.727 9.02399 348.087 11.424C347.447 13.824 346.967 16.128 346.647 18.336C348.087 17.92 349.335 17.616 350.391 17.424C351.447 17.232 352.631 17.2 353.943 17.328C354.359 17.392 354.567 17.504 354.567 17.664C354.567 18.016 354.391 18.224 354.039 18.288C352.695 18.448 351.415 18.672 350.199 18.96C349.015 19.248 347.735 19.712 346.359 20.352C346.167 21.152 346.007 22 345.879 22.896C345.751 23.792 345.639 24.688 345.543 25.584C345.479 26.032 345.415 26.48 345.351 26.928C345.319 27.344 345.271 27.728 345.207 28.08C345.111 28.72 344.823 28.992 344.343 28.896C343.863 28.864 343.671 28.432 343.767 27.6ZM331.623 27.84C332.007 27.936 332.439 27.76 332.919 27.312C333.399 26.864 333.847 26.352 334.263 25.776C334.807 25.04 335.191 24.272 335.415 23.472C335.639 22.64 335.767 22.064 335.799 21.744C335.863 21.104 335.799 20.576 335.607 20.16C335.447 19.744 335.111 19.456 334.599 19.296C334.183 19.84 333.751 20.512 333.303 21.312C332.855 22.08 332.471 22.832 332.151 23.568C331.991 23.92 331.831 24.336 331.671 24.816C331.543 25.264 331.431 25.712 331.335 26.16C331.239 26.576 331.207 26.944 331.239 27.264C331.271 27.584 331.399 27.776 331.623 27.84ZM329.751 15.888C329.399 16.048 329.079 16.128 328.791 16.128C328.503 16.128 328.295 16.048 328.167 15.888C328.071 15.76 328.023 15.552 328.023 15.264C328.055 14.976 328.295 14.736 328.743 14.544C330.471 13.712 332.375 13.184 334.455 12.96C336.535 12.736 338.535 12.672 340.455 12.768C340.775 12.8 340.999 12.88 341.127 13.008C341.255 13.136 341.303 13.28 341.271 13.44C341.271 13.568 341.191 13.696 341.031 13.824C340.903 13.952 340.743 14.016 340.551 14.016C339.847 14.016 339.015 14.048 338.055 14.112C337.127 14.176 336.167 14.288 335.175 14.448C334.215 14.608 333.255 14.816 332.295 15.072C331.335 15.296 330.487 15.568 329.751 15.888ZM338.727 8.44798C338.951 8.47999 339.111 8.55999 339.207 8.68799C339.303 8.81598 339.335 8.94398 339.303 9.07198C339.271 9.19998 339.191 9.31199 339.063 9.40799C338.935 9.50398 338.759 9.53598 338.535 9.50398C338.151 9.47198 337.639 9.48798 336.999 9.55198C336.359 9.58399 335.687 9.66399 334.983 9.79199C334.311 9.91998 333.655 10.064 333.015 10.224C332.375 10.384 331.847 10.56 331.431 10.752C330.983 10.944 330.663 11.024 330.471 10.992C330.311 10.928 330.199 10.832 330.135 10.704C330.071 10.544 330.039 10.352 330.039 10.128C330.039 9.87198 330.263 9.64798 330.711 9.45599C331.223 9.23198 331.815 9.03998 332.487 8.87998C333.159 8.68798 333.847 8.54398 334.551 8.44798C335.287 8.35198 336.007 8.30399 336.711 8.30399C337.415 8.30399 338.087 8.35198 338.727 8.44798ZM380.69 20.544C380.658 21.088 380.45 21.376 380.066 21.408C379.682 21.408 379.474 21.168 379.442 20.688C379.41 20.016 379.394 19.28 379.394 18.48C379.426 17.648 379.458 16.848 379.49 16.08C379.522 15.28 379.57 14.544 379.634 13.872C379.73 13.168 379.842 12.608 379.97 12.192C380.066 11.904 380.194 11.664 380.354 11.472C380.514 11.28 380.722 11.168 380.978 11.136C381.394 11.104 381.618 11.216 381.65 11.472C381.714 11.728 381.698 12.032 381.602 12.384C381.538 12.672 381.458 13.136 381.362 13.776C381.266 14.384 381.17 15.072 381.074 15.84C380.978 16.608 380.898 17.408 380.834 18.24C380.77 19.072 380.722 19.84 380.69 20.544ZM387.842 22.608C386.69 22.704 385.378 22.864 383.906 23.088C382.466 23.312 380.978 23.584 379.442 23.904C377.938 24.224 376.466 24.592 375.026 25.008C373.586 25.392 372.338 25.824 371.282 26.304C370.962 26.464 370.642 26.592 370.322 26.688C370.002 26.752 369.682 26.64 369.362 26.352C369.106 26.128 369.026 25.888 369.122 25.632C369.25 25.376 369.49 25.168 369.842 25.008C370.738 24.592 371.954 24.176 373.49 23.76C375.058 23.344 376.722 22.976 378.482 22.656C380.242 22.304 381.97 22.048 383.666 21.888C385.362 21.696 386.786 21.616 387.938 21.648C388.354 21.68 388.546 21.84 388.514 22.128C388.482 22.416 388.258 22.576 387.842 22.608ZM371.474 17.904C371.474 17.424 371.634 16.736 371.954 15.84C372.306 14.912 372.738 13.904 373.25 12.816C373.794 11.696 374.402 10.544 375.074 9.35999C375.746 8.14398 376.386 7.00798 376.994 5.95198C377.634 4.86399 378.21 3.91998 378.722 3.11998C379.266 2.28798 379.682 1.69598 379.97 1.34398C380.098 1.18398 380.29 1.08798 380.546 1.05598C380.834 1.02398 381.074 1.03998 381.266 1.10398C381.586 1.23198 381.746 1.42398 381.746 1.67999C381.746 1.90398 381.666 2.11198 381.506 2.30399C380.994 2.97598 380.306 3.99998 379.442 5.37599C378.578 6.71999 377.682 8.17599 376.754 9.74398C375.858 11.312 375.026 12.848 374.258 14.352C373.522 15.824 373.01 17.04 372.722 18C372.594 18.448 372.354 18.688 372.002 18.72C371.65 18.72 371.474 18.448 371.474 17.904ZM379.778 7.82399C379.618 7.82399 379.506 7.74399 379.442 7.58399C379.378 7.42398 379.362 7.24798 379.394 7.05598C379.426 6.86399 379.49 6.70399 379.586 6.57598C379.714 6.41599 379.89 6.33599 380.114 6.33599C380.818 6.33599 381.586 6.38399 382.418 6.47999C383.25 6.57598 384.082 6.70398 384.914 6.86398C385.746 7.02398 386.546 7.21598 387.314 7.43999C388.082 7.66398 388.786 7.90398 389.426 8.15998C389.778 8.31998 389.89 8.55998 389.762 8.87998C389.634 9.19999 389.378 9.31199 388.994 9.21599C387.618 8.89599 386.21 8.62399 384.77 8.39998C383.362 8.14399 381.698 7.95199 379.778 7.82399ZM375.746 33.936C375.746 33.456 375.794 32.928 375.89 32.352C376.018 31.776 376.162 31.216 376.322 30.672C376.482 30.096 376.674 29.568 376.898 29.088C377.122 28.576 377.362 28.16 377.618 27.84C377.842 27.488 378.13 27.392 378.482 27.552C378.834 27.68 378.93 27.968 378.77 28.416C378.45 29.312 378.178 30.224 377.954 31.152C377.762 32.08 377.666 32.96 377.666 33.792C377.666 34.336 377.762 34.768 377.954 35.088C378.146 35.376 378.658 35.52 379.49 35.52C380.642 35.52 381.794 35.392 382.946 35.136C384.13 34.848 385.394 34.416 386.738 33.84C387.218 33.648 387.522 33.696 387.65 33.984C387.778 34.272 387.65 34.544 387.266 34.8C386.05 35.632 384.706 36.256 383.234 36.672C381.762 37.088 380.37 37.232 379.058 37.104C377.714 36.976 376.818 36.688 376.37 36.24C375.954 35.824 375.746 35.056 375.746 33.936ZM402.588 36.432C402.236 36.72 402.028 36.944 401.964 37.104C401.932 37.264 402.14 37.312 402.588 37.248C403.292 37.152 403.948 37.072 404.556 37.008C405.164 36.944 405.772 36.88 406.38 36.816C406.988 36.784 407.612 36.752 408.252 36.72C408.924 36.688 409.676 36.672 410.508 36.672C411.436 36.672 412.268 36.688 413.004 36.72C413.772 36.752 414.604 36.832 415.5 36.96C415.788 36.992 415.98 37.072 416.076 37.2C416.172 37.328 416.204 37.456 416.172 37.584C416.172 37.712 416.108 37.824 415.98 37.92C415.852 38.016 415.692 38.064 415.5 38.064C414.668 38 413.868 37.968 413.1 37.968C412.332 37.968 411.58 37.968 410.844 37.968C410.108 37.968 409.404 37.984 408.732 38.016C408.06 38.048 407.372 38.096 406.668 38.16C405.964 38.256 405.196 38.368 404.364 38.496C403.532 38.656 402.572 38.848 401.484 39.072C400.94 39.2 400.476 39.184 400.092 39.024C399.74 38.896 399.5 38.656 399.372 38.304C399.212 37.888 399.244 37.536 399.468 37.248C399.692 36.992 399.9 36.784 400.092 36.624C400.732 36.048 401.66 35.312 402.876 34.416C404.124 33.488 405.5 32.496 407.004 31.44C407.356 31.184 407.516 30.976 407.484 30.816C407.484 30.656 407.26 30.576 406.812 30.576C405.692 30.576 404.604 30.672 403.548 30.864C403.164 30.928 402.812 31.008 402.492 31.104C402.172 31.2 401.74 31.344 401.196 31.536C400.94 31.632 400.636 31.744 400.284 31.872C399.932 31.968 399.628 32.016 399.372 32.016C398.956 32.016 398.732 31.872 398.7 31.584C398.668 31.296 398.828 31.04 399.18 30.816L402.78 28.56C403.74 27.888 404.556 27.312 405.228 26.832C405.9 26.352 406.476 25.952 406.956 25.632C407.436 25.28 407.836 24.992 408.156 24.768C408.508 24.512 408.828 24.272 409.116 24.048C409.66 23.632 409.948 23.216 409.98 22.8C410.012 22.384 409.516 22.208 408.492 22.272C407.532 22.336 406.588 22.512 405.66 22.8C404.732 23.056 403.708 23.616 402.588 24.48C402.428 24.576 402.252 24.544 402.06 24.384C401.868 24.192 401.772 24 401.772 23.808C401.772 23.392 401.996 23.024 402.444 22.704C402.924 22.384 403.436 22.112 403.98 21.888C404.62 21.632 405.324 21.408 406.092 21.216C406.892 21.024 407.788 20.944 408.78 20.976C409.804 21.008 410.588 21.2 411.132 21.552C411.708 21.872 411.996 22.256 411.996 22.704C411.996 23.344 411.484 24.048 410.46 24.816C409.532 25.488 408.732 26.064 408.06 26.544C407.388 27.024 406.78 27.456 406.236 27.84C405.724 28.192 405.244 28.512 404.796 28.8C404.348 29.056 403.9 29.328 403.452 29.616C404.124 29.456 404.828 29.376 405.564 29.376C406.332 29.376 407.068 29.408 407.772 29.472C408.86 29.6 409.468 29.888 409.596 30.336C409.756 30.784 409.596 31.216 409.116 31.632C408.092 32.464 407.02 33.248 405.9 33.984C404.812 34.688 403.708 35.504 402.588 36.432ZM400.044 11.088C400.108 10.64 399.98 10.176 399.66 9.69598C399.372 9.21599 398.812 8.99199 397.98 9.02398C397.5 9.02398 397.036 9.11998 396.588 9.31198C396.14 9.50399 395.74 9.72799 395.388 9.98398C395.036 10.24 394.748 10.512 394.524 10.8C394.3 11.056 394.14 11.296 394.044 11.52C393.98 11.68 393.868 11.792 393.708 11.856C393.548 11.92 393.388 11.936 393.228 11.904C393.1 11.84 392.972 11.744 392.844 11.616C392.748 11.456 392.716 11.28 392.748 11.088C392.876 10.192 393.42 9.40798 394.38 8.73599C395.34 8.03199 396.54 7.67999 397.98 7.67999C399.324 7.67999 400.3 7.99998 400.908 8.63998C401.548 9.24798 401.836 10.048 401.772 11.04C401.708 12.256 401.388 13.424 400.812 14.544C400.236 15.632 399.58 16.704 398.844 17.76C398.14 18.816 397.436 19.856 396.732 20.88C396.06 21.872 395.564 22.896 395.244 23.952C395.18 24.144 395.084 24.288 394.956 24.384C394.828 24.48 394.684 24.512 394.524 24.48C394.396 24.448 394.284 24.384 394.188 24.288C394.092 24.16 394.06 24 394.092 23.808C394.22 22.784 394.572 21.776 395.148 20.784C395.756 19.792 396.396 18.784 397.068 17.76C397.772 16.736 398.412 15.68 398.988 14.592C399.564 13.504 399.916 12.336 400.044 11.088ZM411.9 0.719986C411.9 0.527985 411.996 0.367984 412.188 0.239984C412.412 0.111985 412.636 0.047986 412.86 0.047986C413.084 0.0159845 413.276 0.0639839 413.436 0.191984C413.628 0.319984 413.708 0.543984 413.676 0.863984C413.612 1.82399 413.5 2.86399 413.34 3.98398C413.18 5.10398 412.988 6.23999 412.764 7.39199C412.572 8.54398 412.348 9.69598 412.092 10.848C411.836 12 411.596 13.104 411.372 14.16C411.18 14.992 411.004 15.792 410.844 16.56C410.684 17.296 410.54 17.984 410.412 18.624C410.38 18.816 410.284 18.976 410.124 19.104C409.964 19.232 409.804 19.296 409.644 19.296C409.484 19.296 409.34 19.232 409.212 19.104C409.116 18.976 409.084 18.752 409.116 18.432C409.244 17.376 409.404 16.336 409.596 15.312C409.788 14.256 409.996 13.168 410.22 12.048C410.508 10.512 410.796 8.84798 411.084 7.05598C411.404 5.26398 411.676 3.15199 411.9 0.719986ZM416.274 35.904C416.85 35.36 417.442 34.672 418.05 33.84C418.658 33.008 418.994 32.176 419.058 31.344C418.514 31.408 418.098 31.232 417.81 30.816C417.554 30.368 417.554 29.856 417.81 29.28C417.97 28.96 418.194 28.704 418.482 28.512C418.802 28.288 419.218 28.208 419.73 28.272C420.114 28.304 420.386 28.416 420.546 28.608C420.738 28.8 420.85 29.04 420.882 29.328C420.914 29.616 420.898 29.936 420.834 30.288C420.77 30.64 420.69 30.992 420.594 31.344C420.338 32.368 419.826 33.376 419.058 34.368C418.322 35.36 417.554 36.144 416.754 36.72C416.594 36.848 416.418 36.784 416.226 36.528C416.066 36.272 416.082 36.064 416.274 35.904ZM54.5068 86.152C56.1388 86.056 57.7548 85.832 59.3548 85.48C60.9548 85.128 62.6188 84.808 64.3468 84.52C65.9788 84.264 67.6908 84.088 69.4828 83.992C71.2748 83.896 73.0668 83.928 74.8588 84.088C75.1788 84.12 75.4028 84.2 75.5308 84.328C75.6908 84.424 75.7548 84.552 75.7228 84.712C75.7228 84.84 75.6428 84.968 75.4828 85.096C75.3228 85.192 75.0988 85.24 74.8108 85.24C73.9468 85.24 73.1148 85.24 72.3148 85.24C71.5148 85.24 70.7148 85.272 69.9148 85.336C69.1468 85.368 68.3308 85.432 67.4668 85.528C66.6028 85.592 65.6588 85.72 64.6348 85.912C62.9708 86.2 61.3228 86.584 59.6908 87.064C58.0588 87.544 56.3628 87.848 54.6028 87.976C53.8028 88.008 53.4028 87.768 53.4028 87.256C53.4028 87 53.4668 86.76 53.5948 86.536C53.7548 86.312 54.0588 86.184 54.5068 86.152ZM65.5948 79.912C65.7228 78.28 66.0428 76.648 66.5548 75.016C67.0988 73.384 67.6908 71.736 68.3308 70.072C68.6188 69.336 68.8908 68.584 69.1468 67.816C69.4348 67.048 69.7068 66.312 69.9628 65.608C70.0588 65.288 70.1228 64.984 70.1548 64.696C70.2188 64.408 70.2508 64.184 70.2508 64.024C70.2508 63.672 70.1388 63.448 69.9148 63.352C69.6908 63.256 69.3228 63.224 68.8108 63.256C67.6908 63.32 66.5708 63.528 65.4508 63.88C64.3308 64.2 63.3388 64.536 62.4748 64.888C61.8668 65.144 61.1468 65.512 60.3148 65.992C59.5148 66.472 58.8908 66.968 58.4428 67.48C58.1548 67.832 57.8668 67.928 57.5788 67.768C57.3228 67.608 57.1948 67.256 57.1948 66.712C57.1948 66.2 57.3708 65.832 57.7228 65.608C58.1068 65.384 58.4428 65.176 58.7308 64.984C59.9788 64.152 61.5148 63.416 63.3388 62.776C65.1948 62.104 67.2108 61.72 69.3868 61.624C70.4108 61.56 71.1468 61.72 71.5948 62.104C72.0748 62.488 72.3148 63.032 72.3148 63.736C72.3148 64.152 72.2348 64.648 72.0748 65.224C71.7228 66.344 71.3388 67.432 70.9228 68.488C70.5388 69.512 70.1548 70.456 69.7708 71.32C69.2268 72.536 68.6828 73.88 68.1388 75.352C67.5948 76.792 67.1628 78.376 66.8428 80.104C66.7788 80.392 66.6668 80.6 66.5068 80.728C66.3788 80.856 66.2348 80.92 66.0748 80.92C65.9468 80.888 65.8188 80.792 65.6908 80.632C65.5948 80.472 65.5628 80.232 65.5948 79.912ZM110.892 89.128C110.892 86.536 110.972 84.072 111.132 81.736C111.292 79.368 111.516 77.016 111.804 74.68C112.124 72.344 112.492 69.96 112.908 67.528C113.324 65.064 113.788 62.424 114.3 59.608C114.364 59.224 114.492 58.936 114.684 58.744C114.908 58.552 115.148 58.44 115.404 58.408C115.692 58.376 115.916 58.44 116.076 58.6C116.236 58.76 116.284 59.032 116.22 59.416C115.836 61.496 115.404 63.816 114.924 66.376C114.444 68.904 113.98 71.672 113.532 74.68C114.428 74.168 115.356 73.736 116.316 73.384C117.276 73 118.3 72.728 119.388 72.568C119.676 72.504 119.868 72.616 119.964 72.904C120.092 73.192 119.98 73.416 119.628 73.576C119.052 73.832 118.492 74.072 117.948 74.296C117.404 74.52 116.86 74.76 116.316 75.016C115.804 75.272 115.292 75.576 114.78 75.928C114.268 76.28 113.756 76.712 113.244 77.224C112.988 79.336 112.78 81.304 112.62 83.128C112.492 84.92 112.38 86.84 112.284 88.888C112.284 89.24 112.204 89.496 112.044 89.656C111.884 89.784 111.724 89.848 111.564 89.848C111.404 89.848 111.244 89.784 111.084 89.656C110.956 89.528 110.892 89.352 110.892 89.128ZM93.1798 82.12C93.1798 80.52 93.1958 79.048 93.2278 77.704C93.2918 76.328 93.3878 74.984 93.5158 73.672C93.6758 72.36 93.8838 71.016 94.1398 69.64C94.3958 68.232 94.7318 66.696 95.1478 65.032C95.1798 64.904 95.2918 64.808 95.4838 64.744C95.7078 64.648 95.9318 64.6 96.1558 64.6C96.3798 64.6 96.5718 64.648 96.7318 64.744C96.8918 64.84 96.9558 65 96.9238 65.224L96.7318 66.136C97.4678 65.656 98.2358 65.24 99.0358 64.888C99.8678 64.504 100.86 64.264 102.012 64.168C103.164 64.072 103.964 64.312 104.412 64.888C104.892 65.432 105.132 66.072 105.132 66.808C105.132 67.96 104.988 69.096 104.7 70.216C104.444 71.336 104.092 72.424 103.644 73.48C103.196 74.536 102.684 75.56 102.108 76.552C101.564 77.544 101.004 78.488 100.428 79.384C101.516 79.128 102.604 78.952 103.692 78.856C104.812 78.76 105.932 78.792 107.052 78.952C107.436 79.016 107.628 79.208 107.628 79.528C107.66 79.816 107.468 79.976 107.052 80.008C106.476 80.04 105.9 80.072 105.324 80.104C104.78 80.104 104.22 80.152 103.644 80.248C103.068 80.312 102.46 80.408 101.82 80.536C101.212 80.664 100.54 80.84 99.8038 81.064C99.2598 81.224 98.7798 81.24 98.3638 81.112C97.9798 80.984 97.7878 80.744 97.7878 80.392C97.7878 80.232 97.8358 80.056 97.9318 79.864C98.0278 79.64 98.2038 79.448 98.4598 79.288C98.5558 79.224 98.7318 79 98.9878 78.616C99.2758 78.2 99.5958 77.688 99.9478 77.08C100.332 76.472 100.716 75.784 101.1 75.016C101.484 74.216 101.836 73.384 102.156 72.52C102.476 71.656 102.732 70.776 102.924 69.88C103.148 68.984 103.244 68.12 103.212 67.288C103.18 66.808 103.068 66.44 102.876 66.184C102.684 65.928 102.316 65.8 101.772 65.8C101.036 65.8 100.22 66.008 99.3238 66.424C98.4278 66.808 97.4358 67.368 96.3478 68.104C96.0918 69.128 95.8678 70.216 95.6758 71.368C95.4838 72.52 95.3078 73.704 95.1478 74.92C95.0198 76.104 94.8918 77.288 94.7638 78.472C94.6678 79.624 94.5878 80.696 94.5238 81.688C94.4918 82.04 94.4118 82.296 94.2838 82.456C94.1558 82.584 94.0118 82.664 93.8518 82.696C93.6918 82.728 93.5318 82.696 93.3718 82.6C93.2438 82.472 93.1798 82.312 93.1798 82.12ZM128.391 80.296C128.327 80.552 128.263 80.824 128.199 81.112C128.135 81.4 128.071 81.688 128.007 81.976C129.223 81.08 130.535 80.328 131.943 79.72C133.351 79.112 134.599 78.824 135.687 78.856C136.615 78.888 137.319 79.096 137.799 79.48C138.279 79.832 138.519 80.328 138.519 80.968C138.519 81.224 138.439 81.544 138.279 81.928C138.151 82.28 137.975 82.632 137.751 82.984C137.367 83.592 136.967 84.232 136.551 84.904C136.167 85.544 135.799 86.168 135.447 86.776C135.095 87.384 134.791 87.944 134.535 88.456C134.279 88.968 134.103 89.384 134.007 89.704C133.879 90.088 133.847 90.392 133.911 90.616C133.975 90.872 134.231 90.92 134.679 90.76C135.575 90.408 136.567 90.024 137.655 89.608C138.743 89.192 139.639 88.904 140.343 88.744C140.855 88.616 141.143 88.728 141.207 89.08C141.271 89.4 141.095 89.64 140.679 89.8C139.847 90.152 139.031 90.504 138.231 90.856C137.431 91.24 136.599 91.64 135.735 92.056C135.159 92.344 134.567 92.488 133.959 92.488C133.255 92.488 132.711 92.232 132.327 91.72C131.943 91.24 131.879 90.6 132.135 89.8C132.295 89.32 132.519 88.76 132.807 88.12C133.127 87.448 133.479 86.776 133.863 86.104C134.247 85.432 134.631 84.792 135.015 84.184C135.399 83.544 135.735 83.016 136.023 82.6C136.151 82.408 136.263 82.184 136.359 81.928C136.487 81.672 136.551 81.432 136.551 81.208C136.551 80.984 136.455 80.792 136.263 80.632C136.103 80.472 135.815 80.392 135.399 80.392C134.919 80.392 134.359 80.504 133.719 80.728C133.079 80.92 132.407 81.192 131.703 81.544C130.999 81.896 130.295 82.296 129.591 82.744C128.919 83.16 128.279 83.576 127.671 83.992C127.511 85.368 127.383 86.728 127.287 88.072C127.223 89.416 127.207 90.552 127.239 91.48C127.239 91.704 127.175 91.88 127.047 92.008C126.919 92.168 126.775 92.264 126.615 92.296C126.487 92.36 126.343 92.344 126.183 92.248C126.023 92.184 125.927 92.04 125.895 91.816C125.831 91.368 125.767 90.84 125.703 90.232C125.671 89.624 125.655 89 125.655 88.36C125.655 87.848 125.671 87.24 125.703 86.536C125.767 85.832 125.831 85.112 125.895 84.376C125.959 83.608 126.039 82.872 126.135 82.168C126.263 81.464 126.407 80.824 126.567 80.248C126.663 80.056 126.807 79.912 126.999 79.816C127.223 79.72 127.447 79.688 127.671 79.72C127.895 79.72 128.071 79.768 128.199 79.864C128.359 79.96 128.423 80.104 128.391 80.296ZM135.063 64.696C134.807 65.144 134.487 65.656 134.103 66.232C133.751 66.808 133.319 67.336 132.807 67.816C132.327 68.296 131.783 68.664 131.175 68.92C130.599 69.176 129.975 69.224 129.303 69.064C128.663 68.904 128.247 68.52 128.055 67.912C127.863 67.304 127.799 66.632 127.863 65.896C127.959 65.128 128.103 64.376 128.295 63.64C128.519 62.872 128.727 62.248 128.919 61.768C129.271 60.808 129.751 59.928 130.359 59.128C130.999 58.296 131.655 57.8 132.327 57.64C132.871 57.48 133.287 57.432 133.575 57.496C133.863 57.528 134.135 57.624 134.391 57.784C135.031 58.04 135.463 58.456 135.687 59.032C135.943 59.576 136.055 60.2 136.023 60.904C136.023 61.576 135.927 62.264 135.735 62.968C135.543 63.64 135.319 64.216 135.063 64.696ZM121.239 76.552C121.015 76.296 120.935 76.008 120.999 75.688C121.063 75.368 121.351 75.112 121.863 74.92C122.823 74.536 124.167 74.152 125.895 73.768C127.623 73.384 129.463 73.048 131.415 72.76C133.367 72.472 135.303 72.248 137.223 72.088C139.175 71.928 140.839 71.864 142.215 71.896C142.759 71.928 143.015 72.12 142.983 72.472C142.951 72.792 142.711 72.968 142.263 73C141.015 73.064 139.511 73.192 137.751 73.384C136.023 73.576 134.247 73.832 132.423 74.152C130.631 74.44 128.887 74.792 127.191 75.208C125.527 75.592 124.103 76.024 122.919 76.504C122.535 76.664 122.199 76.76 121.911 76.792C121.623 76.824 121.399 76.744 121.239 76.552ZM133.047 58.984C132.503 59.144 132.023 59.608 131.607 60.376C131.191 61.112 130.823 61.896 130.503 62.728C130.375 63.08 130.231 63.528 130.071 64.072C129.943 64.584 129.831 65.096 129.735 65.608C129.671 66.088 129.671 66.504 129.735 66.856C129.799 67.208 129.975 67.384 130.263 67.384C130.519 67.384 130.791 67.288 131.079 67.096C131.399 66.872 131.703 66.6 131.991 66.28C132.311 65.96 132.599 65.608 132.855 65.224C133.111 64.808 133.335 64.424 133.527 64.072C133.783 63.56 134.007 62.936 134.199 62.2C134.391 61.432 134.455 60.76 134.391 60.184C134.327 59.832 134.183 59.512 133.959 59.224C133.735 58.904 133.431 58.824 133.047 58.984ZM159.741 86.152C161.373 86.056 162.989 85.832 164.589 85.48C166.189 85.128 167.853 84.808 169.581 84.52C171.213 84.264 172.925 84.088 174.717 83.992C176.509 83.896 178.301 83.928 180.093 84.088C180.413 84.12 180.637 84.2 180.765 84.328C180.925 84.424 180.989 84.552 180.957 84.712C180.957 84.84 180.877 84.968 180.717 85.096C180.557 85.192 180.333 85.24 180.045 85.24C179.181 85.24 178.349 85.24 177.549 85.24C176.749 85.24 175.949 85.272 175.149 85.336C174.381 85.368 173.565 85.432 172.701 85.528C171.837 85.592 170.893 85.72 169.869 85.912C168.205 86.2 166.557 86.584 164.925 87.064C163.293 87.544 161.597 87.848 159.837 87.976C159.037 88.008 158.637 87.768 158.637 87.256C158.637 87 158.701 86.76 158.829 86.536C158.989 86.312 159.293 86.184 159.741 86.152ZM170.829 79.912C170.957 78.28 171.277 76.648 171.789 75.016C172.333 73.384 172.925 71.736 173.565 70.072C173.853 69.336 174.125 68.584 174.381 67.816C174.669 67.048 174.941 66.312 175.197 65.608C175.293 65.288 175.357 64.984 175.389 64.696C175.453 64.408 175.485 64.184 175.485 64.024C175.485 63.672 175.373 63.448 175.149 63.352C174.925 63.256 174.557 63.224 174.045 63.256C172.925 63.32 171.805 63.528 170.685 63.88C169.565 64.2 168.573 64.536 167.709 64.888C167.101 65.144 166.381 65.512 165.549 65.992C164.749 66.472 164.125 66.968 163.677 67.48C163.389 67.832 163.101 67.928 162.813 67.768C162.557 67.608 162.429 67.256 162.429 66.712C162.429 66.2 162.605 65.832 162.957 65.608C163.341 65.384 163.677 65.176 163.965 64.984C165.213 64.152 166.749 63.416 168.573 62.776C170.429 62.104 172.445 61.72 174.621 61.624C175.645 61.56 176.381 61.72 176.829 62.104C177.309 62.488 177.549 63.032 177.549 63.736C177.549 64.152 177.469 64.648 177.309 65.224C176.957 66.344 176.573 67.432 176.157 68.488C175.773 69.512 175.389 70.456 175.005 71.32C174.461 72.536 173.917 73.88 173.373 75.352C172.829 76.792 172.397 78.376 172.077 80.104C172.013 80.392 171.901 80.6 171.741 80.728C171.613 80.856 171.469 80.92 171.309 80.92C171.181 80.888 171.053 80.792 170.925 80.632C170.829 80.472 170.797 80.232 170.829 79.912ZM198.76 81.016C198.664 80.28 198.616 79.24 198.616 77.896C198.616 76.52 198.648 75.016 198.712 73.384C198.808 71.72 198.936 69.992 199.096 68.2C199.288 66.408 199.544 64.712 199.864 63.112C199.928 62.792 200.056 62.552 200.248 62.392C200.472 62.232 200.648 62.152 200.776 62.152C201.288 62.12 201.56 62.232 201.592 62.488C201.656 62.712 201.672 62.92 201.64 63.112C201.352 64.744 201.112 66.344 200.92 67.912C200.76 69.48 200.616 71.032 200.488 72.568C201.416 71.992 202.44 71.416 203.56 70.84C204.712 70.232 205.928 69.848 207.208 69.688C207.528 67.64 207.88 65.624 208.264 63.64C208.68 61.656 209.096 59.896 209.512 58.36C209.576 58.072 209.72 57.88 209.944 57.784C210.168 57.688 210.376 57.64 210.568 57.64C210.76 57.64 210.936 57.688 211.096 57.784C211.288 57.88 211.352 58.072 211.288 58.36C211.096 59.352 210.856 60.488 210.568 61.768C210.312 63.048 210.04 64.376 209.752 65.752C209.496 67.128 209.256 68.488 209.032 69.832C208.808 71.144 208.648 72.344 208.552 73.432C208.424 74.776 208.296 76.168 208.168 77.608C208.04 79.048 207.928 80.504 207.832 81.976C207.736 83.448 207.656 84.904 207.592 86.344C207.528 87.784 207.496 89.144 207.496 90.424C207.496 90.616 207.432 90.76 207.304 90.856C207.176 90.984 207.032 91.048 206.872 91.048C206.712 91.08 206.552 91.048 206.392 90.952C206.264 90.856 206.184 90.696 206.152 90.472C206.088 89.96 206.04 89.128 206.008 87.976C206.008 86.792 206.024 85.432 206.056 83.896C206.12 82.328 206.2 80.648 206.296 78.856C206.424 77.032 206.584 75.192 206.776 73.336C206.808 72.984 206.84 72.648 206.872 72.328C206.904 71.976 206.952 71.624 207.016 71.272C205.992 71.528 204.904 71.96 203.752 72.568C202.6 73.176 201.464 73.944 200.344 74.872C200.28 75.896 200.232 76.92 200.2 77.944C200.168 78.936 200.152 79.912 200.152 80.872C200.152 81.064 200.072 81.224 199.912 81.352C199.784 81.448 199.64 81.512 199.48 81.544C199.32 81.576 199.16 81.544 199 81.448C198.872 81.352 198.792 81.208 198.76 81.016ZM195.16 67.72C194.136 67.784 193.176 67.896 192.28 68.056C191.384 68.184 190.52 68.344 189.688 68.536C189.272 69.272 188.872 70.104 188.488 71.032C188.136 71.928 187.8 72.84 187.48 73.768C187.16 74.696 186.888 75.592 186.664 76.456C186.44 77.32 186.264 78.088 186.136 78.76C186.04 79.24 186.024 79.608 186.088 79.864C186.184 80.088 186.328 80.232 186.52 80.296C186.712 80.36 186.936 80.36 187.192 80.296C187.48 80.232 187.768 80.12 188.056 79.96C189.272 79.384 190.536 78.872 191.848 78.424C193.16 77.944 194.344 77.688 195.4 77.656C195.816 77.656 196.024 77.816 196.024 78.136C196.024 78.456 195.864 78.648 195.544 78.712C194.424 78.872 193.384 79.16 192.424 79.576C191.496 79.992 190.552 80.456 189.592 80.968C189.368 81.064 189.048 81.208 188.632 81.4C188.248 81.592 187.816 81.768 187.336 81.928C186.888 82.056 186.44 82.136 185.992 82.168C185.544 82.2 185.176 82.136 184.888 81.976C184.504 81.752 184.264 81.416 184.168 80.968C184.104 80.52 184.12 79.992 184.216 79.384C184.44 77.752 184.872 76.024 185.512 74.2C186.152 72.344 186.84 70.648 187.576 69.112C186.232 69.56 185.096 69.992 184.168 70.408C183.752 70.632 183.448 70.6 183.256 70.312C183.064 70.024 183.096 69.736 183.352 69.448C183.704 69.064 184.28 68.696 185.08 68.344C185.912 67.96 186.856 67.624 187.912 67.336C188.968 67.016 190.088 66.76 191.272 66.568C192.488 66.344 193.656 66.216 194.776 66.184C195.192 66.184 195.448 66.376 195.544 66.76C195.608 67.016 195.592 67.24 195.496 67.432C195.432 67.624 195.32 67.72 195.16 67.72ZM214.594 88.936C215.394 88.584 216.306 88.264 217.33 87.976C218.386 87.656 219.474 87.368 220.594 87.112C220.882 85.832 221.33 84.36 221.938 82.696C222.578 81.032 223.33 79.416 224.194 77.848C222.882 78.232 221.634 78.52 220.45 78.712C219.266 78.904 218.194 79 217.234 79C216.274 79 215.714 78.712 215.554 78.136C215.394 77.56 215.698 76.904 216.466 76.168C217.266 75.432 218.194 74.584 219.25 73.624C220.338 72.632 221.746 71.432 223.474 70.024C223.602 69.928 223.714 69.816 223.81 69.688C223.938 69.528 224.002 69.4 224.002 69.304C224.002 69.176 223.938 69.08 223.81 69.016C223.682 68.952 223.442 68.936 223.09 68.968C222.418 69.032 221.538 69.144 220.45 69.304C219.394 69.432 218.482 69.56 217.714 69.688C217.49 69.72 217.298 69.688 217.138 69.592C217.01 69.496 216.914 69.368 216.85 69.208C216.818 69.016 216.834 68.824 216.898 68.632C216.962 68.44 217.09 68.28 217.282 68.152C218.498 67.32 219.73 66.344 220.978 65.224C222.226 64.104 223.298 63.064 224.194 62.104C224.546 61.72 224.834 61.288 225.058 60.808C225.314 60.296 225.346 59.768 225.154 59.224C224.866 58.328 223.986 57.896 222.514 57.928C221.97 57.96 221.426 58.12 220.882 58.408C220.37 58.664 219.938 58.92 219.586 59.176C219.362 59.336 219.154 59.4 218.962 59.368C218.802 59.336 218.658 59.256 218.53 59.128C218.434 58.968 218.37 58.792 218.338 58.6C218.338 58.376 218.402 58.184 218.53 58.024C219.01 57.384 219.634 56.952 220.402 56.728C221.202 56.504 221.938 56.392 222.61 56.392C223.826 56.392 224.77 56.616 225.442 57.064C226.114 57.48 226.578 58.104 226.834 58.936C227.058 59.608 227.042 60.312 226.786 61.048C226.562 61.784 226.21 62.392 225.73 62.872C225.41 63.192 225.01 63.576 224.53 64.024C224.082 64.44 223.586 64.888 223.042 65.368C222.53 65.816 222.002 66.264 221.458 66.712C220.946 67.16 220.466 67.56 220.018 67.912C220.818 67.784 221.634 67.688 222.466 67.624C223.33 67.56 224.13 67.56 224.866 67.624C225.666 67.688 226.13 67.976 226.258 68.488C226.418 68.968 226.226 69.48 225.682 70.024C224.69 70.952 223.826 71.736 223.09 72.376C222.386 73.016 221.762 73.576 221.218 74.056C220.674 74.536 220.194 74.952 219.778 75.304C219.394 75.624 219.058 75.928 218.77 76.216C218.482 76.504 218.322 76.744 218.29 76.936C218.29 77.128 218.53 77.192 219.01 77.128C221.218 76.904 223.186 76.52 224.914 75.976C226.642 75.432 228.322 74.776 229.954 74.008C230.242 73.88 230.466 73.832 230.626 73.864C230.818 73.896 230.946 73.976 231.01 74.104C231.106 74.2 231.122 74.344 231.058 74.536C231.026 74.696 230.914 74.824 230.722 74.92C230.05 75.336 229.362 75.72 228.658 76.072C227.986 76.392 227.314 76.696 226.642 76.984C226.098 78.008 225.618 78.936 225.202 79.768C224.786 80.6 224.402 81.4 224.05 82.168C223.73 82.904 223.442 83.656 223.186 84.424C222.93 85.16 222.69 85.944 222.466 86.776C222.722 86.712 222.978 86.664 223.234 86.632C223.49 86.6 223.746 86.568 224.002 86.536C225.826 86.344 227.65 86.216 229.474 86.152C231.33 86.056 233.202 86.136 235.09 86.392C235.282 86.424 235.426 86.504 235.522 86.632C235.65 86.728 235.714 86.856 235.714 87.016C235.714 87.144 235.634 87.272 235.474 87.4C235.346 87.496 235.122 87.544 234.802 87.544C232.754 87.544 230.898 87.592 229.234 87.688C227.602 87.752 225.922 87.912 224.194 88.168C223.106 88.328 221.922 88.6 220.642 88.984C219.362 89.368 217.794 89.88 215.938 90.52C215.682 90.616 215.41 90.712 215.122 90.808C214.834 90.904 214.514 90.952 214.162 90.952C213.938 90.952 213.73 90.888 213.538 90.76C213.378 90.632 213.298 90.456 213.298 90.232C213.298 90.008 213.362 89.8 213.49 89.608C213.618 89.416 213.986 89.192 214.594 88.936ZM277.414 57.592C277.158 59.768 276.838 61.832 276.454 63.784C276.102 65.736 275.734 67.656 275.35 69.544C274.966 71.4 274.614 73.272 274.294 75.16C273.974 77.016 273.734 78.952 273.574 80.968C273.574 81.16 273.51 81.304 273.382 81.4C273.254 81.496 273.11 81.544 272.95 81.544C272.822 81.544 272.694 81.496 272.566 81.4C272.438 81.304 272.374 81.176 272.374 81.016C272.342 79.32 272.422 77.592 272.614 75.832C272.838 74.072 273.126 72.232 273.478 70.312C271.974 70.536 270.534 70.984 269.158 71.656C267.782 72.296 266.502 73.064 265.318 73.96C265.158 74.088 264.982 74.12 264.79 74.056C264.63 73.992 264.502 73.896 264.406 73.768C264.31 73.608 264.262 73.432 264.262 73.24C264.262 73.048 264.358 72.872 264.55 72.712C265.478 71.976 266.678 71.24 268.15 70.504C269.654 69.768 271.494 69.272 273.67 69.016C273.99 67.288 274.294 65.528 274.582 63.736C274.87 61.944 275.142 60.072 275.398 58.12C275.462 57.608 275.606 57.288 275.83 57.16C276.086 57 276.342 56.904 276.598 56.872C276.79 56.872 276.982 56.92 277.174 57.016C277.366 57.112 277.446 57.304 277.414 57.592ZM252.166 80.92C252.87 80.056 253.622 79.096 254.422 78.04C255.222 76.952 256.022 75.8 256.822 74.584C257.622 73.336 258.39 72.008 259.126 70.6C259.894 69.192 260.566 67.72 261.142 66.184C261.334 65.672 261.334 65.24 261.142 64.888C260.982 64.504 260.486 64.424 259.654 64.648C258.758 64.904 257.878 65.384 257.014 66.088C256.15 66.76 255.494 67.464 255.046 68.2C254.95 68.328 254.822 68.392 254.662 68.392C254.502 68.392 254.342 68.36 254.182 68.296C254.054 68.2 253.958 68.072 253.894 67.912C253.83 67.72 253.846 67.512 253.942 67.288C254.262 66.584 254.886 65.848 255.814 65.08C256.774 64.28 257.974 63.704 259.414 63.352C260.31 63.128 261.014 63.08 261.526 63.208C262.07 63.336 262.47 63.576 262.726 63.928C262.982 64.248 263.11 64.664 263.11 65.176C263.11 65.656 263.014 66.152 262.822 66.664C261.702 69.544 260.342 72.2 258.742 74.632C257.142 77.032 255.254 79.4 253.078 81.736C252.918 81.896 252.758 81.976 252.598 81.976C252.47 81.944 252.342 81.88 252.214 81.784C252.118 81.688 252.054 81.56 252.022 81.4C251.99 81.24 252.038 81.08 252.166 80.92ZM265.75 89.032C265.75 88.008 265.958 86.904 266.374 85.72C266.822 84.536 267.366 83.56 268.006 82.792C268.134 82.632 268.294 82.536 268.486 82.504C268.678 82.44 268.838 82.44 268.966 82.504C269.126 82.536 269.238 82.648 269.302 82.84C269.366 83 269.334 83.208 269.206 83.464C268.758 84.488 268.406 85.4 268.15 86.2C267.894 87 267.734 87.768 267.67 88.504C267.638 88.952 267.67 89.416 267.766 89.896C267.862 90.376 268.23 90.584 268.87 90.52C269.446 90.456 270.006 90.344 270.55 90.184C271.126 90.024 271.718 89.864 272.326 89.704C272.934 89.512 273.574 89.368 274.246 89.272C274.95 89.144 275.702 89.08 276.502 89.08C277.046 89.08 277.286 89.24 277.222 89.56C277.158 89.88 276.918 90.072 276.502 90.136C275.542 90.232 274.758 90.344 274.15 90.472C273.542 90.632 272.966 90.792 272.422 90.952C271.878 91.144 271.302 91.336 270.694 91.528C270.118 91.72 269.398 91.896 268.534 92.056C267.702 92.216 267.03 92.024 266.518 91.48C266.006 90.968 265.75 90.152 265.75 89.032ZM260.854 73.432C260.854 73.144 260.918 72.92 261.046 72.76C261.206 72.568 261.382 72.456 261.574 72.424C261.766 72.392 261.942 72.44 262.102 72.568C262.294 72.696 262.406 72.92 262.438 73.24C262.598 74.456 262.758 75.864 262.918 77.464C263.078 79.032 263.286 80.456 263.542 81.736C263.606 82.088 263.462 82.328 263.11 82.456C262.79 82.552 262.55 82.424 262.39 82.072C261.942 80.984 261.59 79.656 261.334 78.088C261.078 76.488 260.918 74.936 260.854 73.432ZM295.527 79.72C295.975 79.752 296.215 79.928 296.247 80.248C296.279 80.536 296.199 80.936 296.007 81.448C295.367 83.112 294.887 84.728 294.567 86.296C295.015 86.104 295.527 85.928 296.103 85.768C296.711 85.576 297.319 85.416 297.927 85.288C298.567 85.16 299.191 85.08 299.799 85.048C300.407 84.984 300.967 84.968 301.479 85C301.863 83.784 302.231 82.712 302.583 81.784C302.679 81.496 302.823 81.288 303.015 81.16C303.239 81 303.479 80.936 303.735 80.968C304.087 81.032 304.311 81.128 304.407 81.256C304.535 81.384 304.487 81.72 304.263 82.264C304.007 82.904 303.735 83.608 303.447 84.376C303.191 85.112 302.919 85.88 302.631 86.68C302.375 87.48 302.119 88.264 301.863 89.032C301.639 89.8 301.431 90.52 301.239 91.192C301.783 91.096 302.327 91.032 302.871 91C303.447 90.968 304.007 90.968 304.551 91C304.775 91 304.951 91.064 305.079 91.192C305.207 91.352 305.271 91.512 305.271 91.672C305.303 91.832 305.255 91.976 305.127 92.104C305.031 92.232 304.871 92.312 304.647 92.344C302.919 92.504 301.479 92.68 300.327 92.872C299.175 93.064 298.135 93.304 297.207 93.592C296.695 93.72 296.391 93.608 296.295 93.256C296.231 93.096 296.231 92.936 296.295 92.776C296.391 92.648 296.583 92.504 296.871 92.344C297.159 92.184 297.575 92.024 298.119 91.864C298.663 91.704 299.255 91.56 299.895 91.432C300.023 90.632 300.183 89.8 300.375 88.936C300.567 88.04 300.791 87.16 301.047 86.296C300.567 86.296 300.023 86.344 299.415 86.44C298.839 86.536 298.231 86.664 297.591 86.824C296.983 86.984 296.375 87.16 295.767 87.352C295.191 87.544 294.695 87.736 294.279 87.928C294.151 88.536 294.039 89.144 293.943 89.752C293.879 90.36 293.815 90.984 293.751 91.624C293.719 91.944 293.623 92.184 293.463 92.344C293.335 92.504 293.191 92.584 293.031 92.584C292.871 92.616 292.727 92.552 292.599 92.392C292.503 92.264 292.455 92.04 292.455 91.72C292.487 90.76 292.535 89.848 292.599 88.984C292.695 88.088 292.823 87.192 292.983 86.296C293.143 85.4 293.335 84.488 293.559 83.56C293.783 82.6 294.055 81.576 294.375 80.488C294.471 80.2 294.615 79.992 294.807 79.864C295.031 79.736 295.271 79.688 295.527 79.72ZM301.527 77.992C301.527 78.344 301.463 78.6 301.335 78.76C301.207 78.92 301.063 79.016 300.903 79.048C300.743 79.048 300.583 78.984 300.423 78.856C300.295 78.728 300.215 78.52 300.183 78.232C300.119 77.592 300.087 76.76 300.087 75.736C300.119 74.68 300.183 73.528 300.279 72.28C300.407 71 300.551 69.656 300.711 68.248C300.903 66.84 301.111 65.464 301.335 64.12C301.559 62.744 301.799 61.448 302.055 60.232C302.311 59.016 302.567 57.976 302.823 57.112C302.951 56.792 303.079 56.536 303.207 56.344C303.367 56.12 303.575 56.008 303.831 56.008C304.599 56.008 304.871 56.504 304.647 57.496C304.423 58.264 304.183 59.176 303.927 60.232C303.703 61.256 303.479 62.36 303.255 63.544C303.031 64.696 302.823 65.896 302.631 67.144C302.439 68.36 302.263 69.56 302.103 70.744C302.679 70.52 303.303 70.296 303.975 70.072C304.679 69.816 305.399 69.608 306.135 69.448C306.903 69.256 307.671 69.112 308.439 69.016C309.207 68.888 309.959 68.84 310.695 68.872C311.047 68.904 311.239 69.064 311.271 69.352C311.303 69.64 311.143 69.816 310.791 69.88C310.183 69.976 309.511 70.12 308.775 70.312C308.039 70.472 307.271 70.68 306.471 70.936C305.703 71.16 304.919 71.416 304.119 71.704C303.319 71.992 302.567 72.328 301.863 72.712C301.735 73.736 301.639 74.712 301.575 75.64C301.511 76.536 301.495 77.32 301.527 77.992ZM286.263 79.384C285.783 79.128 285.463 78.776 285.303 78.328C285.175 77.848 285.143 77.352 285.207 76.84C285.303 76.296 285.463 75.768 285.687 75.256C285.911 74.712 286.151 74.232 286.407 73.816C287.399 72.12 288.711 70.728 290.343 69.64C290.631 69.448 290.903 69.448 291.159 69.64C291.447 69.832 291.511 70.088 291.351 70.408L291.159 70.744C291.799 71.576 292.071 72.504 291.975 73.528C291.911 74.552 291.655 75.528 291.207 76.456C290.983 76.904 290.679 77.352 290.295 77.8C289.943 78.248 289.543 78.632 289.095 78.952C288.647 79.272 288.183 79.496 287.703 79.624C287.223 79.72 286.743 79.64 286.263 79.384ZM283.287 68.488C282.935 68.648 282.615 68.712 282.327 68.68C282.039 68.648 281.831 68.552 281.703 68.392C281.607 68.264 281.575 68.072 281.607 67.816C281.671 67.528 281.927 67.288 282.375 67.096C284.103 66.264 286.135 65.544 288.471 64.936C290.807 64.296 293.303 64.024 295.959 64.12C296.567 64.152 296.839 64.328 296.775 64.648C296.711 64.968 296.471 65.144 296.055 65.176C294.327 65.336 292.823 65.528 291.543 65.752C290.295 65.976 289.175 66.232 288.183 66.52C287.223 66.808 286.343 67.128 285.543 67.48C284.775 67.8 284.023 68.136 283.287 68.488ZM294.903 59.08C295.415 59.08 295.671 59.24 295.671 59.56C295.671 59.72 295.655 59.848 295.623 59.944C295.591 60.008 295.351 60.072 294.903 60.136C294.263 60.2 293.575 60.312 292.839 60.472C292.103 60.632 291.367 60.824 290.631 61.048C289.927 61.24 289.255 61.464 288.615 61.72C288.007 61.944 287.495 62.168 287.079 62.392C286.631 62.648 286.311 62.76 286.119 62.728C285.927 62.664 285.799 62.568 285.735 62.44C285.639 62.312 285.559 62.136 285.495 61.912C285.463 61.656 285.671 61.4 286.119 61.144C287.239 60.504 288.599 60.008 290.199 59.656C291.799 59.272 293.367 59.08 294.903 59.08ZM289.959 75.592C290.343 74.696 290.535 73.96 290.535 73.384C290.535 72.808 290.391 72.248 290.103 71.704C289.655 72.152 289.255 72.584 288.903 73C288.583 73.416 288.215 73.944 287.799 74.584C287.319 75.32 286.983 76.024 286.791 76.696C286.631 77.336 286.695 77.752 286.983 77.944C287.111 78.04 287.303 78.056 287.559 77.992C287.815 77.928 288.087 77.8 288.375 77.608C288.663 77.416 288.951 77.16 289.239 76.84C289.527 76.488 289.767 76.072 289.959 75.592ZM328.775 75.592C328.615 76.584 328.471 77.736 328.343 79.048C328.215 80.328 328.087 81.656 327.959 83.032C327.831 84.408 327.703 85.752 327.575 87.064C327.479 88.376 327.383 89.544 327.287 90.568C327.287 90.792 327.207 90.968 327.047 91.096C326.919 91.256 326.759 91.336 326.567 91.336C326.407 91.368 326.247 91.32 326.087 91.192C325.959 91.096 325.879 90.904 325.847 90.616C325.815 90.168 325.815 89.48 325.847 88.552C325.879 87.592 325.943 86.472 326.039 85.192C326.135 83.88 326.263 82.44 326.423 80.872C326.583 79.304 326.759 77.656 326.951 75.928C327.079 74.712 327.255 73.368 327.479 71.896C327.703 70.424 327.943 68.904 328.199 67.336C328.455 65.768 328.711 64.216 328.967 62.68C329.255 61.112 329.543 59.624 329.831 58.216C329.927 57.768 330.103 57.48 330.359 57.352C330.615 57.192 330.903 57.192 331.223 57.352C331.575 57.512 331.767 57.768 331.799 58.12C331.831 58.472 331.783 58.888 331.655 59.368C331.431 60.232 331.191 61.288 330.935 62.536C330.711 63.784 330.471 65.128 330.215 66.568C329.959 68.008 329.703 69.512 329.447 71.08C329.223 72.616 328.999 74.12 328.775 75.592ZM314.855 80.056C314.375 80.152 313.911 80.2 313.463 80.2C313.015 80.2 312.631 80.104 312.311 79.912C312.023 79.72 311.799 79.4 311.639 78.952C311.479 78.504 311.447 77.896 311.543 77.128C311.735 75.304 312.151 73.496 312.791 71.704C313.431 69.912 314.119 68.36 314.855 67.048C315.207 66.408 315.511 65.976 315.767 65.752C316.023 65.528 316.295 65.432 316.583 65.464C316.807 65.464 316.951 65.56 317.015 65.752C317.111 65.912 317.079 66.168 316.919 66.52C316.599 67.192 316.247 67.96 315.863 68.824C315.511 69.656 315.159 70.52 314.807 71.416C314.487 72.312 314.199 73.224 313.943 74.152C313.719 75.048 313.559 75.896 313.463 76.696C313.399 77.112 313.399 77.512 313.463 77.896C313.527 78.248 313.879 78.376 314.519 78.28C316.311 77.992 318.039 77.544 319.703 76.936C321.399 76.328 322.967 75.608 324.407 74.776C324.631 74.648 324.823 74.6 324.983 74.632C325.175 74.632 325.303 74.696 325.367 74.824C325.431 74.92 325.447 75.048 325.415 75.208C325.383 75.368 325.287 75.512 325.127 75.64C324.647 76.024 324.023 76.44 323.255 76.888C322.487 77.304 321.639 77.72 320.711 78.136C319.783 78.52 318.807 78.888 317.783 79.24C316.791 79.56 315.815 79.832 314.855 80.056ZM348.497 89.848C348.497 87.352 348.673 84.856 349.025 82.36C349.409 79.864 349.873 77.336 350.417 74.776C350.769 72.888 351.153 71 351.569 69.112C351.985 67.224 352.369 65.224 352.721 63.112C352.785 62.856 352.833 62.52 352.865 62.104C352.897 61.688 352.929 61.352 352.961 61.096C352.993 60.84 353.057 60.552 353.153 60.232C353.281 59.912 353.537 59.816 353.921 59.944C354.273 60.008 354.497 60.152 354.593 60.376C354.721 60.6 354.785 60.888 354.785 61.24C354.785 61.752 354.721 62.328 354.593 62.968C354.273 64.76 353.921 66.584 353.537 68.44C353.153 70.264 352.769 72.12 352.385 74.008C353.217 73.624 354.161 73.272 355.217 72.952C356.305 72.632 357.377 72.472 358.433 72.472C358.977 72.472 359.233 72.632 359.201 72.952C359.201 73.272 359.025 73.464 358.673 73.528C357.169 73.816 355.889 74.184 354.833 74.632C353.809 75.08 352.833 75.576 351.905 76.12C351.649 77.24 351.409 78.408 351.185 79.624C350.961 80.84 350.753 82.04 350.561 83.224C350.369 84.408 350.209 85.56 350.081 86.68C349.985 87.8 349.937 88.824 349.937 89.752C349.937 90.072 349.857 90.328 349.697 90.52C349.569 90.744 349.377 90.856 349.121 90.856C348.705 90.856 348.497 90.52 348.497 89.848ZM344.321 68.296C343.809 68.328 343.297 68.36 342.785 68.392C342.305 68.392 341.841 68.424 341.393 68.488C340.305 70.184 339.393 71.992 338.657 73.912C337.921 75.8 337.425 77.464 337.169 78.904C337.073 79.48 337.105 79.848 337.265 80.008C337.457 80.168 337.857 80.184 338.465 80.056C339.073 79.928 339.729 79.752 340.433 79.528C341.137 79.304 341.841 79.08 342.545 78.856C343.281 78.632 343.985 78.44 344.657 78.28C345.361 78.12 346.033 78.024 346.673 77.992C347.025 77.992 347.217 78.152 347.249 78.472C347.313 78.76 347.169 78.936 346.817 79C346.209 79.16 345.521 79.368 344.753 79.624C344.017 79.848 343.249 80.104 342.449 80.392C341.649 80.68 340.881 80.952 340.145 81.208C339.409 81.464 338.753 81.672 338.177 81.832C337.793 81.928 337.393 81.976 336.977 81.976C336.593 81.976 336.257 81.896 335.969 81.736C335.681 81.576 335.457 81.336 335.297 81.016C335.137 80.664 335.089 80.2 335.153 79.624C335.249 78.728 335.441 77.8 335.729 76.84C336.049 75.848 336.401 74.872 336.785 73.912C337.169 72.92 337.585 71.992 338.033 71.128C338.513 70.232 338.977 69.432 339.425 68.728C338.593 68.856 337.809 69 337.073 69.16C336.369 69.32 335.665 69.512 334.961 69.736C334.737 69.8 334.545 69.816 334.385 69.784C334.225 69.72 334.113 69.64 334.049 69.544C333.985 69.416 333.953 69.288 333.953 69.16C333.985 69 334.081 68.856 334.241 68.728C334.657 68.408 335.249 68.136 336.017 67.912C336.817 67.656 337.681 67.448 338.609 67.288C339.537 67.128 340.481 67.016 341.441 66.952C342.433 66.856 343.313 66.808 344.081 66.808C344.337 66.808 344.513 66.872 344.609 67C344.705 67.096 344.769 67.224 344.801 67.384C344.865 67.64 344.849 67.864 344.753 68.056C344.657 68.216 344.513 68.296 344.321 68.296ZM361.709 85.24C361.773 84.856 361.981 84.488 362.333 84.136C362.717 83.784 363.133 83.608 363.581 83.608C364.381 83.608 364.813 83.832 364.877 84.28C364.973 84.728 364.957 85.368 364.829 86.2C364.765 86.552 364.557 86.76 364.205 86.824C363.853 86.888 363.485 86.92 363.101 86.92C362.653 86.92 362.285 86.76 361.997 86.44C361.741 86.088 361.645 85.688 361.709 85.24Z" fill="black"/>
</svg>
